<?xml version="1.0" encoding="UTF-8" standalone="no"?>
<svg
   xmlns:dc="http://purl.org/dc/elements/1.1/"
   xmlns:cc="http://creativecommons.org/ns#"
   xmlns:rdf="http://www.w3.org/1999/02/22-rdf-syntax-ns#"
   xmlns:svg="http://www.w3.org/2000/svg"
   xmlns="http://www.w3.org/2000/svg"
   width="48" 
   height="48" 
   viewBox="0 0 24 24"
>
    <!-- create a trumpet -->
    <path 
        d="
            M 2 3
            l 6 3
            l -6 3
            M 2 4
            a 5 3 0 0 1 0 4
            M 10 6
            a 10 3 0 0 0 0 4
            M 17 6
            a 10 3 0 0 1 0 4
            "
        stroke="black"
        stroke-linejoin="round"
        fill="yellow"
    />
    
    <!-- valve block -->
    <line x1="9" y1="6" x2="18" y2="6" stroke="black" stroke-linejoin="round" />
    <line x1="9" y1="8" x2="18" y2="8" stroke="black" stroke-linejoin="round" />
    <line x1="12" y1="4" x2="11" y2="12" stroke="black" stroke-linejoin="round" />
    <line x1="14" y1="4" x2="13" y2="12" stroke="black" stroke-linejoin="round" />
    <line x1="16" y1="4" x2="15" y2="12" stroke="black" stroke-linejoin="round" />
    <line x1="11" y1="3" x2="17" y2="3" stroke="black" stroke-linejoin="round" /> <!-- valve caps -->
    
    <!-- mouthpiece -->
    <path 
        d="
            M 22 4
            l -3 2
            l 3 2
            M 23 4
            a 3 3 0 0 0 0 4
            "
        stroke="black"
        stroke-linejoin="round"
        fill="grey"
    />                    

    <circle cx="18" cy="18" r="6" fill="green" />
    <line x1="18" y1="15" x2="18" y2="21" stroke="white" />
    <line x1="15" y1="18" x2="21" y2="18" stroke="white" />
</svg>

