<?xml version="1.0" encoding="UTF-8" standalone="no"?>
<svg
   xmlns:dc="http://purl.org/dc/elements/1.1/"
   xmlns:cc="http://creativecommons.org/ns#"
   xmlns:rdf="http://www.w3.org/1999/02/22-rdf-syntax-ns#"
   xmlns:svg="http://www.w3.org/2000/svg"
   xmlns="http://www.w3.org/2000/svg"
   xmlns:sodipodi="http://sodipodi.sourceforge.net/DTD/sodipodi-0.dtd"
   xmlns:inkscape="http://www.inkscape.org/namespaces/inkscape"
   width="146.27678mm"
   height="103.6966mm"
   viewBox="0 0 146.27678 103.6966"
   version="1.1"
   id="svg8"
   inkscape:version="1.0.2 (e86c870879, 2021-01-15, custom)"
   sodipodi:docname="addInstrument.svg">
  <defs
     id="defs2">
    <filter
       inkscape:collect="always"
       style="color-interpolation-filters:sRGB"
       id="filter2932"
       x="-0.0085649583"
       width="1.0171299"
       y="-0.008320981"
       height="1.016642">
      <feGaussianBlur
         inkscape:collect="always"
         stdDeviation="0.19115019"
         id="feGaussianBlur2934" />
    </filter>
    <filter
       inkscape:collect="always"
       style="color-interpolation-filters:sRGB"
       id="filter3380"
       x="-0.072555817"
       width="1.1451116"
       y="-0.011413275"
       height="1.0228265">
      <feGaussianBlur
         inkscape:collect="always"
         stdDeviation="0.16967964"
         id="feGaussianBlur3382" />
    </filter>
    <filter
       inkscape:collect="always"
       style="color-interpolation-filters:sRGB"
       id="filter3396"
       x="-0.0063163209"
       width="1.0126326"
       y="-0.038869665"
       height="1.0777393">
      <feGaussianBlur
         inkscape:collect="always"
         stdDeviation="0.084408001"
         id="feGaussianBlur3398" />
    </filter>
  </defs>
  <sodipodi:namedview
     id="base"
     pagecolor="#ffffff"
     bordercolor="#666666"
     borderopacity="1.0"
     inkscape:pageopacity="0.0"
     inkscape:pageshadow="2"
     inkscape:zoom="0.9899495"
     inkscape:cx="4.8776032"
     inkscape:cy="236.86257"
     inkscape:document-units="mm"
     inkscape:current-layer="layer1"
     inkscape:document-rotation="0"
     showgrid="false"
     inkscape:window-width="1920"
     inkscape:window-height="1017"
     inkscape:window-x="-8"
     inkscape:window-y="-8"
     inkscape:window-maximized="1" />
  <metadata
     id="metadata5">
    <rdf:RDF>
      <cc:Work
         rdf:about="">
        <dc:format>image/svg+xml</dc:format>
        <dc:type
           rdf:resource="http://purl.org/dc/dcmitype/StillImage" />
        <dc:title />
      </cc:Work>
    </rdf:RDF>
  </metadata>
  <g
     inkscape:label="Layer 1"
     inkscape:groupmode="layer"
     id="layer1"
     transform="translate(-35.529762,-29.351017)">
    <path
       style="fill:none;stroke:#000000;stroke-width:0.301011px;stroke-linecap:butt;stroke-linejoin:miter;stroke-opacity:1"
       d="m 94.263596,53.164903 c 1.633006,-1.579943 2.912259,-3.669204 4.514073,-5.197302 1.13607,-1.083789 5.404981,-2.807708 6.848931,-3.266875 2.01583,-0.641022 6.60788,-0.823939 8.09419,0.593978 1.71217,1.633377 2.89595,9.025409 2.33486,11.434063 -0.42923,1.842693 -1.48509,3.475666 -2.1792,5.197302 -2.27276,5.637243 -5.75043,12.168046 -10.2734,16.482869 -1.97923,1.888151 -4.230692,3.371112 -6.070642,5.345797 -0.441446,0.473772 -1.10961,0.718916 -1.556578,1.187955 -1.052879,1.104868 -2.650807,2.782192 -3.26881,4.15784 -0.306959,0.683285 -0.168722,1.250277 -0.311314,1.930428 -0.07433,0.354548 -1.368785,0.852235 -1.712234,1.039459 -2.46207,1.342154 -3.462859,3.74375 -5.603675,5.49429 -2.92242,2.389659 -6.184259,4.266223 -8.872481,6.830743 -0.385259,0.36752 -1.098007,0.60199 -1.40092,0.89096"
       id="path15" />
    <path
       style="fill:none;stroke:#000000;stroke-width:0.301011px;stroke-linecap:butt;stroke-linejoin:miter;stroke-opacity:1"
       d="m 94.263596,53.164903 c -3.763874,3.525377 -6.272711,8.115539 -9.495114,12.028039 -2.668872,3.240433 -5.379571,6.510055 -7.782879,9.94912 -1.082668,1.549268 -2.07546,3.123361 -3.268809,4.603326 -2.210942,2.741952 -4.55015,5.189869 -6.848937,7.870199 -1.98528,2.314791 -4.048434,4.604598 -6.226303,6.682243 -0.842706,0.803925 -2.302494,1.285136 -3.26881,1.930427 -0.456988,0.305173 -0.705385,0.818733 -1.245261,1.039462 -2.344571,0.958573 -4.433766,2.529205 -6.848935,3.415371 -1.651249,0.60586 -9.838974,1.66448 -10.273402,2.07892 -0.346068,0.33014 3.210176,3.7461 3.580124,4.15784 1.25842,1.4006 2.247218,3.08915 3.735784,4.30634 2.717142,2.2218 5.577264,4.38761 8.249852,6.68224 0.796184,0.6836 1.575218,1.35424 2.334864,2.07892 0.08204,0.0782 0.03964,0.29699 0.155658,0.29699 0.775543,0 -0.334678,-1.04247 -0.778288,-2.22741 -0.289546,-0.77343 -0.357858,-2.29632 -0.622631,-2.96989 -0.428918,-1.09115 -0.933945,-2.20276 -0.933945,-3.41537 0,-1.79515 -0.369265,-4.02992 0,-5.79127 0.437248,-2.08564 1.906492,-3.9161 3.113153,-5.6428 0.250786,-0.358866 0.359703,-1.002011 0.622628,-1.336444 0.371526,-0.472567 1.080792,-1.026852 1.40092,-1.484945 0.05756,-0.08237 0,-0.19799 0,-0.296988 0.05188,-0.148492 0.06465,-0.315245 0.155656,-0.445483 0.808352,-1.156723 2.413574,-1.894557 3.268813,-3.11838 1.176051,-1.682896 2.703299,-2.727392 4.202755,-4.15784 0.952761,-0.908919 1.705134,-2.072147 2.646177,-2.969887 0.539499,-0.514672 1.232052,-0.895977 1.712235,-1.484943 0.843422,-1.034496 0.449576,-0.791826 1.24526,-1.930426 0.48537,-0.694552 1.236052,-1.249025 1.712235,-1.930429 2.254253,-3.225771 4.696788,-6.569887 7.004592,-9.652129 0.842824,-1.125655 2.12907,-1.989379 2.957494,-3.11838 0.765652,-1.043452 1.396269,-2.221208 2.179207,-3.266876 0.912543,-1.218767 2.133352,-2.246983 3.113154,-3.415371 0.701759,-0.836833 1.198206,-1.641736 1.712231,-2.524403 0.899993,-1.545432 0.01981,0.126454 0.933946,-0.890966 0.427615,-0.475924 0.673341,-1.137056 1.089605,-1.633437 0.616323,-0.734952 1.273713,-1.245436 2.023549,-1.781934 0.551413,-0.394527 0.94882,-1.264378 1.400917,-1.781931 0.452552,-0.518069 1.033905,-0.623945 1.556578,-1.03946 1.370871,-1.089823 6.193781,-4.196998 7.938531,-4.751818 0.59597,-0.189513 1.43437,-0.148495 2.02355,-0.148495 0.12473,0 0.83457,-0.09481 0.93395,0 0.36318,0.346467 1.01914,0.909196 1.55658,1.336449 1.04114,0.827698 1.39319,0.861475 1.71223,2.07892 0.30881,1.178414 0,2.778639 0,4.009347 0,1.213497 0.21018,2.657747 0,3.860855 -0.77789,4.452546 -4.16333,8.098551 -7.16025,11.434062 -1.83337,2.040498 -2.83784,4.637665 -4.82539,6.533749 -2.146777,2.047989 -4.842514,3.728703 -7.004589,5.79128 -0.691564,0.659741 -1.201917,1.534332 -1.86789,2.227414 -0.862761,0.897882 -1.70775,1.590969 -2.490522,2.524404 -0.797441,0.950929 -2.313274,1.703996 -3.268812,2.524405 -1.191519,1.023019 -2.16091,2.209962 -3.268808,3.266873 -0.971567,0.926858 -1.483499,2.400138 -2.334864,3.415372 -1.132707,1.350726 -1.99284,2.777447 -2.957494,4.157835 -0.399447,0.5716 -1.237729,1.0251 -1.556575,1.63344 -0.04699,0.0897 0.07196,0.37684 0,0.44548 -0.139887,0.13345 -1.359442,1.24753 -1.40092,1.48495 -0.0853,0.48825 0,0.98996 0,1.48494"
       id="path19" />
    <path
       style="fill:none;stroke:#000000;stroke-width:0.301011px;stroke-linecap:butt;stroke-linejoin:miter;stroke-opacity:1"
       d="m 75.740342,100.83158 c 0.08864,0.94074 -0.0571,1.53942 -0.778287,2.22742 -1.081005,1.03126 -3.635154,0.59398 -4.981044,0.59398 -1.649015,0 -4.490981,0.60866 -5.91499,-0.29699 -0.234798,-0.14933 -0.838861,-0.73223 -0.933946,-0.89097 -0.527649,-0.88089 -0.620047,-7.729103 -0.311314,-8.612672 0.359028,-1.027517 0.929489,-1.773435 1.400916,-2.672897"
       id="path23" />
    <path
       style="fill:none;stroke:#000000;stroke-width:0.301011px;stroke-linecap:butt;stroke-linejoin:miter;stroke-opacity:1"
       d="m 74.806396,105.28641 c -0.103772,0.39599 -0.119971,0.82288 -0.311315,1.18796 -0.175577,0.335 -4.047732,2.26469 -4.51407,2.37591 -0.887207,0.21159 -3.726343,0.59697 -4.669729,0.29699 -0.132989,-0.0423 -0.731271,-0.56595 -0.778287,-0.59398 -2.247061,-1.33978 -1.957983,-1.95382 -2.957495,-3.86086 -0.580346,-1.10727 -1.197227,-1.80397 -1.40092,-2.96988 -0.259986,-1.48813 -0.22464,-3.770585 0.311315,-5.04881 0.369872,-0.882123 1.400919,-2.56059 1.400919,-3.266873"
       id="path27" />
    <path
       style="fill:none;stroke:#000000;stroke-width:0.301011px;stroke-linecap:butt;stroke-linejoin:miter;stroke-opacity:1"
       d="m 82.589275,66.529393 c 1.163425,1.518247 3.152972,2.181654 4.669728,3.266875 0.571551,0.408933 1.11786,1.246438 1.867894,1.484943 1.297609,0.412631 2.447246,0.814449 3.735782,1.484942 1.465312,0.762481 3.478311,1.090827 4.669729,2.227417 0.878519,0.838092 6.693272,3.994985 6.693272,4.306334 0,1.272949 -1.60241,2.463364 -2.1792,3.563864 -0.0286,0.05468 -1.5434,0.04027 -1.71224,0 -0.27343,-0.06522 -0.688891,-0.453712 -0.933942,-0.593978 -0.822797,-0.47096 -1.910386,-0.809999 -2.646177,-1.336447 -0.925379,-0.662094 -1.799775,-1.689114 -2.646181,-2.227417 -1.187609,-0.755302 -2.576614,-1.460055 -3.891441,-1.930426 -1.020461,-0.365061 -2.334044,-1.815776 -3.424468,-2.375909 -2.434836,-1.250731 -3.512974,-1.395256 -5.1367,-3.563864 -0.593193,-0.792251 -0.938861,-0.905029 -1.245261,-1.781931 -0.198184,-0.567194 0.211112,-1.537847 0.466974,-1.781933 0.468832,-0.447256 0.946338,0.231726 1.712231,-0.74247 z"
       id="path29" />
    <path
       style="fill:none;stroke:#000000;stroke-width:0.301011px;stroke-linecap:butt;stroke-linejoin:miter;stroke-opacity:1"
       d="m 80.41007,69.053796 c -1.727563,-0.508694 -2.946264,0.688892 -3.268812,2.227415 -0.06139,0.292815 0.110388,0.488666 -0.155655,0.74247 -0.06436,0.06139 -1.157464,1.611347 -0.933946,1.781934 0.970574,0.740728 2.271015,1.147346 3.268808,1.78193 0.779216,0.495573 2.093883,1.849031 2.80184,2.524405 1.727295,1.647809 4.916798,2.978526 7.004592,4.306335 0.417225,0.26535 0.75753,0.704854 1.245261,0.890967 1.43115,0.546114 3.092699,0.819862 4.514069,1.633438 0.675794,0.386815 3.216467,2.310202 3.580125,2.078921 1.320227,-0.839648 2.179208,-3.598415 2.179208,-4.900314"
       id="path33" />
    <path
       style="fill:none;stroke:#000000;stroke-width:0.301011px;stroke-linecap:butt;stroke-linejoin:miter;stroke-opacity:1"
       d="m 75.895997,73.805615 c -0.476243,0.07573 -3.752685,4.884185 -3.735782,4.900311 0.631863,0.602785 3.551243,1.076715 4.514073,1.484946 1.044404,0.442816 1.914188,1.422346 2.801836,1.930425 0.111867,0.06403 0.933503,0.177855 1.089602,0.296988 2.96013,2.259125 6.43118,3.69416 9.495117,5.642785 1.242536,0.790239 3.106959,0.885057 4.202753,1.930426 0.140548,0.13408 1.616529,0.862369 1.867892,0.742471 1.068695,-0.509755 2.334864,-3.001017 2.334864,-4.009347"
       id="path35" />
    <path
       style="fill:none;stroke:#000000;stroke-width:0.301011px;stroke-linecap:butt;stroke-linejoin:miter;stroke-opacity:1"
       d="m 99.400298,47.522118 c 0.05188,-0.395985 0.03546,-0.805718 0.155659,-1.187955 0.449923,-1.430724 3.759393,-3.805893 4.825383,-5.048807 0.85616,-0.998269 1.70006,-2.062668 2.49051,-3.118381 0.40093,-0.535464 0.93887,-1.355177 1.08962,-1.930426 0.0518,-0.197993 -0.0582,-0.593977 0.15565,-0.593977 0.51984,0 1.53666,1.61444 1.86789,1.930426 0.24124,0.230141 0.62635,-0.01067 0.46697,0.445483 -0.34574,0.989496 -2.15173,1.43252 -2.64618,2.375909 -0.46831,0.893515 -1.71886,2.233735 -2.33486,2.821393 -0.59719,0.569707 -0.59604,1.459577 -1.0896,1.930426"
       id="path41" />
    <path
       style="fill:none;stroke:#000000;stroke-width:0.301011px;stroke-linecap:butt;stroke-linejoin:miter;stroke-opacity:1"
       d="m 107.8058,35.642572 c -0.0185,-1.167357 0.38081,-4.818109 1.24527,-5.642785 0.0747,-0.07122 0.71723,0.952099 0.77828,1.039461 0.37093,0.53078 0.78962,0.90537 1.24526,1.484943 0.53934,0.686009 0.70335,1.85894 1.24527,2.375909 0.39433,0.376183 1.27031,0.938774 1.55657,1.484943 0.11602,0.221363 0.0629,0.502371 0,0.742472 -0.15899,0.606729 -3.15058,1.187955 -3.73579,1.187955"
       id="path43" />
    <path
       style="fill:none;stroke:#000000;stroke-width:0.301011px;stroke-linecap:butt;stroke-linejoin:miter;stroke-opacity:1"
       d="m 93.485308,73.063144 c -0.234475,-3.74816 3.712123,-5.566161 5.448016,-8.464178 2.659796,-4.440442 4.126726,-8.175127 9.806426,-9.800627 0.625,-0.17887 1.47076,-0.52227 2.17921,-0.296988 1.23659,0.393227 1.06339,1.706907 1.40092,2.672897 1.72191,4.928009 0.87081,7.180599 -2.9575,11.137078 -1.68684,1.743306 -3.45295,2.84857 -5.1367,4.454827 -1.35374,1.291447 -2.19922,2.840491 -3.58012,4.157842"
       id="path45" />
    <path
       style="fill:none;stroke:#000000;stroke-width:0.301011px;stroke-linecap:butt;stroke-linejoin:miter;stroke-opacity:1"
       d="m 93.485308,73.063144 c 0.830174,-0.148496 1.727929,-0.09905 2.490522,-0.445483 0.686494,-0.311859 1.25024,-1.936759 1.712233,-2.524405 0.485151,-0.617097 1.226255,-1.021328 1.712235,-1.484942 0.35466,-0.338341 0.724472,-1.078566 1.089602,-1.484943 1.54213,-1.716356 2.4082,-2.406595 3.73578,-4.306338 0.6343,-0.907657 1.99779,-1.299585 2.64617,-2.227414 0.17078,-0.24437 1.33701,-1.842915 1.71225,-1.484943 0.53212,0.507649 0.65258,1.066164 0.93394,1.781931 1.34725,3.42732 -1.54776,7.392957 -4.20275,9.503637 -0.73252,0.582333 -0.47588,0.0084 -1.08961,0.593979 -0.23422,0.223437 -0.60456,0.788077 -0.93395,1.039458 -1.04835,0.800088 -2.20023,1.505009 -3.11315,2.37591 -0.189566,0.180851 -1.871398,1.631762 -1.867884,1.633438 0.749746,0.357624 1.556575,0.593978 2.334864,0.890966"
       id="path47" />
    <path
       style="fill:none;stroke:#000000;stroke-width:0.301011px;stroke-linecap:butt;stroke-linejoin:miter;stroke-opacity:1"
       d="m 82.27796,84.497206 c -1.629229,2.037749 -3.964253,3.330995 -5.914989,5.048806 -2.61111,2.299337 -4.485409,5.412263 -5.603672,8.612673 -0.07783,0.222741 0.07783,0.519729 0,0.742471 -0.2543,0.727792 -0.724697,2.130044 0,2.821394 0.447234,0.42665 1.505342,0.57768 2.023548,0.74247 4.878377,1.5513 7.481917,-0.79965 11.207348,-3.563864 4.032392,-2.991976 8.52306,-5.200371 9.80643,-10.097614"
       id="path49" />
    <path
       style="fill:none;stroke:#000000;stroke-width:0.301011px;stroke-linecap:butt;stroke-linejoin:miter;stroke-opacity:1"
       d="m 82.27796,84.497206 c 2.205999,2.918749 0.567683,2.5448 -0.933946,4.45483 -0.798991,1.016298 -1.400571,2.07859 -2.334862,2.969885 -1.248923,1.191451 -3.092216,1.557312 -4.202756,2.969889 -0.610267,0.776243 -1.518844,3.389869 -0.311315,4.15784 0.925829,0.588815 3.281094,0.502537 4.358412,0.29699 0.875634,-0.167067 2.607136,-1.893178 3.268812,-2.524405 0.645751,-0.616034 1.800471,-0.82665 2.490521,-1.484942 0.831518,-0.793255 5.448017,-6.608728 5.448017,-7.276223"
       id="path51" />
    <path
       style="fill:none;stroke:#000000;stroke-width:0.301011px;stroke-linecap:butt;stroke-linejoin:miter;stroke-opacity:1"
       d="m 70.914954,74.251098 c 0.84804,0.609094 1.640654,2.078919 2.80184,2.078919"
       id="path53" />
    <path
       style="fill:none;stroke:#000000;stroke-width:0.301011px;stroke-linecap:butt;stroke-linejoin:miter;stroke-opacity:1"
       d="m 74.495081,69.49928 c 0.816121,0.61642 2.377528,0.634675 3.113151,1.336447"
       id="path55" />
    <path
       style="fill:none;stroke:#000000;stroke-width:0.301011px;stroke-linecap:butt;stroke-linejoin:miter;stroke-opacity:1"
       d="m 77.763891,65.638425 c 0.796806,0.797309 2.216334,1.223374 2.957494,1.930426 0.374154,0.356939 -0.196531,0.992181 -0.311315,1.484945"
       id="path57" />
    <path
       style="fill:none;stroke:#000000;stroke-width:0.301011px;stroke-linecap:butt;stroke-linejoin:miter;stroke-opacity:1"
       d="m 77.763891,65.638425 c 1.084821,-2.853682 0.02833,-0.02363 0,0 -0.605269,0.505237 -1.074108,0.282206 -1.556575,0.742472 -0.183446,0.175002 -0.674519,0.742474 -0.466974,0.593978 0.65631,-0.46958 1.349034,-0.890966 2.023549,-1.33645"
       id="path59" />
    <path
       style="fill:none;stroke:#000000;stroke-width:0.301011px;stroke-linecap:butt;stroke-linejoin:miter;stroke-opacity:1"
       d="m 74.495081,69.49928 c 0.259429,-0.445484 0.539388,-0.880638 0.778287,-1.33645 0.148581,-0.283482 -0.673227,0.293299 -0.778287,0.593976 -0.08204,0.234791 0.183445,0.567471 0,0.742474 -0.22317,0.2129 -0.630481,0.06578 -0.933946,0.148492 -0.330272,0.09002 -0.567309,0.641837 -0.778288,0.742472 -0.207545,0.099 -0.502097,0.719979 -0.311315,0.593979 0.69968,-0.462101 1.34903,-0.989964 2.023549,-1.484943"
       id="path61" />
    <path
       style="fill:none;stroke:#000000;stroke-width:0.301011px;stroke-linecap:butt;stroke-linejoin:miter;stroke-opacity:1"
       d="m 70.914954,74.251098 c 0.363201,-0.593978 0.767243,-1.166879 1.089606,-1.781933 0.09589,-0.182949 -0.319007,0.155834 -0.778289,0.593979 -0.498056,0.475133 -0.88561,0.85638 -1.556577,1.336447 -0.554255,0.396561 -1.946317,1.074601 -1.400917,0.890967 0.899528,-0.302872 1.764117,-0.692974 2.646177,-1.03946"
       id="path63" />
    <path
       style="fill:#ffff00;stroke-width:0.152034"
       d="m 61.372411,94.116542 c -1.555284,1.112772 -3.347178,1.919701 -4.834475,3.126974 -3.018751,1.458533 -5.796,3.553254 -9.217576,4.083994 -2.614832,0.59861 -5.354255,0.85935 -7.90844,1.59544 0.719345,1.44699 2.198143,2.46611 3.207632,3.74767 1.679223,2.01528 3.338585,4.06662 5.491229,5.65509 2.782966,2.20918 5.485365,4.53578 8.267515,6.7286 -0.585294,-1.90681 -0.889708,-3.91752 -1.59458,-5.80723 -0.474078,-2.39433 -0.467702,-4.87121 -0.289425,-7.29304 0.514612,-2.68084 2.583168,-4.69563 3.76132,-7.08974 0.612804,-0.750823 1.374632,-1.425124 1.6265,-2.364307 0.579387,-0.701632 1.396359,-1.469984 1.4903,-2.383451 z"
       id="path65" />
    <path
       style="fill:#ffff00;stroke-width:0.152034"
       d="m 61.828135,95.270854 c -1.739376,1.414734 -1.564045,3.850617 -1.46476,5.827826 0.313922,1.98564 1.5374,3.71542 2.457382,5.48617 0.742625,1.05138 1.830402,2.06536 3.133522,2.39621 2.413571,0.22591 4.759861,-0.54122 6.799959,-1.72379 0.95755,-0.38371 1.911057,-1.10288 1.733564,-2.21396 -0.104774,-0.35291 0.303391,-1.16431 -0.126797,-1.3309 -2.862346,0.31516 -5.775776,0.24274 -8.658758,0.26392 -1.705685,0.15435 -3.202047,-1.3498 -3.065455,-2.95704 -0.164489,-2.096256 -0.377633,-4.213381 -0.104852,-6.309639 -0.234603,0.187066 -0.469204,0.374134 -0.703805,0.561203 z"
       id="path67" />
    <path
       style="fill:#ffff00;stroke-width:0.152034"
       d="m 74.316009,79.80221 c -1.114885,0.563614 -1.712049,1.800253 -2.593052,2.643547 -2.45925,2.950551 -5.207122,5.704129 -7.44899,8.806759 0.0073,0.281297 -0.358526,0.928788 0.18089,0.447512 2.627532,-1.916934 4.497792,-4.552328 6.895756,-6.693266 1.136119,-1.289883 1.952154,-2.809862 3.19098,-4.029357 0.188831,-0.300425 1.03419,-1.065761 0.205822,-1.106457 -0.142262,-0.02596 -0.284364,-0.07707 -0.431406,-0.06874 z"
       id="path69" />
    <path
       style="fill:#ffff00;stroke-width:0.152034"
       d="m 82.338155,84.961518 c -3.039118,2.844048 -6.882355,5.015795 -9.067276,8.615116 -0.932483,1.580802 -1.931956,3.243373 -2.278098,5.030701 -0.07708,0.99575 -0.949615,2.464575 0.276048,3.135495 1.23359,0.37815 2.578623,1.01775 3.883842,0.75465 0.423146,-0.41796 0.185013,-1.41766 0.750621,-1.65084 0.146235,0.19245 0.08243,0.81873 0.461198,0.40053 0.451583,-0.46915 1.139294,-0.9122 1.378117,-1.486972 -1.227506,-0.316881 -2.945485,0.191934 -3.806619,-0.947234 -0.446161,-1.797545 0.0098,-3.962979 1.74598,-5.013714 1.711732,-1.070514 3.558625,-2.077498 4.617516,-3.827308 0.73982,-1.195258 1.971626,-2.043559 2.704166,-3.220371 0.170282,-0.648113 -0.370671,-1.260203 -0.665495,-1.790053 z"
       id="path71" />
    <path
       style="fill:#ffff00;stroke-width:0.152034"
       d="m 89.100445,87.7716 c -2.64558,1.62261 -4.834079,3.869448 -6.741922,6.233571 -0.995663,1.75156 -2.444336,3.296911 -3.380385,5.043296 1.661442,-0.895823 2.791762,-2.536808 4.553592,-3.33213 2.08371,-1.351726 3.283603,-3.573589 4.815905,-5.425151 0.402827,-0.710416 1.228607,-1.364666 1.301563,-2.174743 C 89.50023,87.973037 89.306394,87.814812 89.100445,87.7716 Z"
       id="path73" />
    <path
       style="fill:#ffff00;stroke-width:0.152034"
       d="m 90.207071,88.511751 c -1.73573,2.435681 -3.447221,4.945752 -5.596377,7.077553 -1.462036,0.898893 -2.873274,1.87047 -4.127663,3.031373 -0.577794,0.578373 -1.409848,0.823775 -2.09621,1.173454 -0.672046,1.003309 -1.83532,1.735979 -2.136945,2.951329 2.501884,-0.27523 4.242675,-2.24943 6.226057,-3.524298 2.337779,-1.588485 4.238835,-3.637982 6.051738,-5.73746 1.010759,-1.102617 2.380876,-1.792162 3.712678,-2.474809 -0.152851,-0.656384 0.528195,-1.77456 -0.503456,-1.960008 -0.494556,-0.206371 -0.9951,-0.454045 -1.529822,-0.537134 z"
       id="path75" />
    <path
       style="fill:#ffff00;stroke-width:0.152034"
       d="m 91.412505,85.356247 c -0.677671,0.676517 -1.362276,1.349101 -1.975816,2.080371 0.958404,0.553009 2.044375,1.112851 3.101904,1.315276 0.775333,-1.189154 1.722405,-2.2628 2.641315,-3.351273 -0.801738,-0.519469 -1.705467,-0.862245 -2.606354,-1.189116 -0.387014,0.381582 -0.774032,0.76316 -1.161049,1.144742 z"
       id="path77" />
    <path
       style="fill:#ffff00;stroke-width:0.152034"
       d="m 79.047758,75.73747 c -1.11774,1.228797 -1.99212,2.644255 -2.982424,3.967293 1.726302,0.638055 2.971203,2.053184 4.70889,2.675666 2.678531,1.601289 5.320162,3.327203 8.166611,4.626658 1.107397,-0.857491 1.997017,-1.94123 2.985158,-2.917973 -2.297135,-0.66927 -4.065576,-2.313648 -6.195677,-3.317826 -2.504149,-1.202546 -4.442783,-3.140502 -6.487378,-4.915779 -0.06208,-0.02941 -0.120812,-0.117748 -0.19518,-0.118039 z"
       id="path79" />
    <path
       style="fill:#ffff00;stroke-width:0.152034"
       d="m 81.889119,71.752196 c -0.871067,1.130171 -1.696261,2.294576 -2.544334,3.44147 2.222673,2.107136 4.515891,4.196757 7.332156,5.573367 1.922769,0.912885 3.490186,2.459992 5.629382,2.933735 0.923727,-1.257325 2.092428,-2.319434 3.280665,-3.344893 -1.602572,-1.845609 -4.024227,-2.641192 -6.129626,-3.798787 -1.780263,-1.296792 -3.682044,-2.417837 -5.640766,-3.450173 -0.708058,-0.367064 -1.239041,-0.978844 -1.927477,-1.354719 z"
       id="path81" />
    <path
       style="fill:#ffff00;stroke-width:0.152034"
       d="m 94.606527,81.917385 c -0.501484,0.623932 -1.441058,1.117061 -1.613427,1.899685 0.773533,0.412128 1.674423,0.681359 2.438232,1.117767 1.280098,-0.691909 2.270397,-1.781866 3.342685,-2.728293 -0.951843,-0.485057 -2.009163,-0.855646 -2.778124,-1.605305 -0.463121,0.438715 -0.926242,0.877431 -1.389366,1.316146 z"
       id="path83" />
    <path
       style="fill:#ffff00;stroke-width:0.152034"
       d="m 100.31843,77.287087 c -1.350992,0.967443 -2.600519,2.08691 -3.946464,3.072848 0.827496,0.605625 1.82344,1.174298 2.799707,1.423746 1.260827,-0.968901 2.561507,-1.968902 3.647317,-3.092276 -0.74185,-0.561309 -1.57529,-1.174807 -2.50056,-1.404318 z"
       id="path85" />
    <path
       style="fill:#ffff00;stroke-width:0.152034"
       d="m 84.958796,68.726623 c -0.99942,0.726834 -1.796418,1.676639 -2.687526,2.517731 1.853793,1.9584 4.650714,2.680118 6.691758,4.425827 2.113009,1.454063 4.768829,2.093516 6.620009,3.921469 0.672697,0.809355 1.314442,-0.4083 1.901029,-0.697518 0.706659,-0.664919 1.742729,-1.176609 2.280141,-1.928685 -0.425137,-0.469333 -1.653201,-0.4333 -1.518576,-1.220148 -1.2355,-0.808352 -2.447761,-1.700956 -3.91029,-2.139245 -1.924272,-0.905517 -3.987133,-1.536246 -5.884587,-2.47597 -1.132501,-0.829664 -2.19335,-1.818437 -3.491958,-2.403461 z"
       id="path87" />
    <path
       style="fill:#ffff00;stroke-width:0.152034"
       d="m 103.44587,79.078011 c -1.31617,0.920097 -2.66453,1.932634 -3.72757,3.087928 0.18702,0.287127 0.69112,0.513645 0.68495,0.02117 0.51772,-0.313861 0.24445,0.664104 0.76674,0.522633 1.14901,-0.006 1.5517,-1.368355 2.21861,-2.061869 0.27813,-0.424465 0.90967,-1.344138 0.0573,-1.569862 z"
       id="path89" />
    <path
       style="fill:#ffff00;stroke-width:0.152034"
       d="m 99.356822,82.592279 c -1.292854,0.697404 -2.204744,1.944791 -3.449703,2.744246 0.829453,0.430442 1.579909,1.224826 2.521837,1.365742 1.041469,-0.89994 1.593664,-2.30247 1.839004,-3.598377 -0.310834,-0.111604 -0.581456,-0.420866 -0.911138,-0.511611 z"
       id="path91" />
    <path
       style="fill:#ffff00;stroke-width:0.152034"
       d="m 95.628639,85.746913 c -0.933826,0.958573 -1.972617,1.979522 -2.491434,3.196692 0.227426,0.437242 0.619362,-0.648179 0.791361,-0.0052 0.07209,0.857712 1.168963,1.331732 1.949975,1.477984 1.252109,-0.365997 1.611562,-1.837732 2.143335,-2.842567 0.263419,-0.656469 -0.948197,-0.670073 -1.24283,-1.102976 -0.383876,-0.238663 -0.761731,-0.500779 -1.150407,-0.72391 z"
       id="path93" />
    <path
       style="fill:#ffff00;stroke-width:0.152034"
       d="m 80.890721,70.404724 c -1.072658,1.316454 -2.231642,2.640991 -3.05478,4.099835 0.356674,0.355324 1.115216,0.758268 1.355367,0.03721 0.86658,-1.068636 1.637175,-2.203781 2.450035,-3.3093 -0.239957,-0.253576 -0.41431,-0.699121 -0.750622,-0.827741 z"
       id="path95" />
    <path
       style="fill:#ffff00;stroke-width:0.152034"
       d="m 79.562158,69.20575 c -0.947664,0.02916 -1.864981,0.789588 -1.925653,1.66215 -0.411297,0.774632 -0.540818,1.666746 -1.131254,2.375909 -0.524749,0.619578 0.980652,1.440451 1.151927,0.567583 0.842273,-1.374412 2.147541,-2.50991 2.798797,-3.971641 -0.01273,-0.455923 -0.43891,-0.723314 -0.893817,-0.634001 z"
       id="path97" />
    <path
       style="fill:#ffff00;stroke-width:0.152034"
       d="m 75.591978,74.414362 c -1.061348,1.371965 -2.206414,2.791083 -3.060861,4.241948 0.495881,0.181835 1.326277,0.843182 1.609171,0.04205 0.966944,-1.319962 2.024698,-2.629567 2.830112,-4.027619 -0.410643,-0.229744 -1.103526,-0.949377 -1.378422,-0.256383 z"
       id="path99" />
    <path
       style="fill:#ffff00;stroke-width:0.152034"
       d="m 77.407883,74.997606 c -1.034986,1.364972 -2.02345,2.799246 -2.809741,4.302857 0.44054,0.317348 1.114898,0.369081 1.308577,-0.247842 0.918479,-1.179781 1.762752,-2.409822 2.639105,-3.617943 -0.373799,-0.145232 -0.731326,-0.392254 -1.137941,-0.437072 z"
       id="path101" />
    <path
       style="fill:#ffff00;stroke-width:0.152034"
       d="m 63.372553,91.978456 c -0.817757,0.574274 -1.537074,1.363798 -1.507629,2.386931 -0.417963,0.712677 0.291843,0.119401 0.417111,-0.166477 0.386229,-0.686901 0.988335,-1.498793 1.090518,-2.220454 z"
       id="path103" />
    <path
       style="fill:#ffff00;stroke-width:0.152034"
       d="m 83.141372,67.625097 c -0.641295,0.723291 -1.407866,1.495765 -1.79067,2.378808 0.357521,1.086038 1.084316,0.527537 1.604745,-0.171095 0.319373,-0.595549 2.09959,-1.303781 0.973668,-1.787846 -0.249862,-0.142942 -0.479932,-0.413069 -0.787743,-0.419867 z"
       id="path105" />
    <path
       style="fill:#ffff00;stroke-width:0.152034"
       d="m 82.622109,67.007336 c -0.572225,0.268864 -1.702659,0.08514 -1.587283,0.988997 -0.0012,0.405396 -0.601367,1.229127 -0.05199,1.438537 0.558375,-0.785352 1.498704,-1.497385 1.726827,-2.415641 -0.0254,-0.01696 -0.05837,-0.0157 -0.08756,-0.01188 z"
       id="path107" />
    <path
       style="fill:#ffff00;stroke-width:0.152034"
       d="m 109.0845,44.45708 c -3.56809,-0.02137 -6.74032,1.779015 -9.736495,3.41682 -2.157881,1.932152 -3.716247,4.40366 -5.82144,6.397715 -3.547515,3.775615 -6.175589,8.22351 -9.459272,12.197692 -0.487945,0.444683 -0.672422,0.943264 0.109567,1.17174 0.622931,0.693255 1.006201,-0.476965 1.311234,-0.84427 1.712441,-2.918634 4.561999,-5.035541 6.221136,-7.989403 0.693755,-0.734098 1.365885,-1.472362 1.91319,-2.321674 1.161234,-1.255752 2.528401,-2.330276 3.56097,-3.692635 2.232329,-1.71045 4.66347,-3.195596 7.10869,-4.616358 1.41376,-0.853 3.00545,-1.442838 4.70352,-1.356639 1.05489,-0.223997 1.61814,0.957186 2.42973,1.418988 0.82135,0.704149 1.90917,1.425353 1.70551,2.632649 0.19333,3.684783 -0.0927,7.401644 0.36194,11.067392 0.3063,0.106864 0.40512,-0.923252 0.64433,-1.142687 0.9741,-2.004283 1.99663,-4.103243 1.75938,-6.375381 -0.18023,-2.933633 -0.55717,-6.012727 -2.10517,-8.606618 -1.04446,-1.334496 -3.13785,-1.304582 -4.70682,-1.357331 z"
       id="path109" />
    <path
       style="fill:#ffff00;stroke-width:0.152034"
       d="m 110.41793,54.657946 c -3.89098,0.553254 -7.27451,3.079507 -9.08274,6.376469 -1.434823,2.384273 -2.735758,4.89194 -4.875973,6.793992 -1.380576,1.380418 -2.658505,3.005394 -2.81886,4.97746 1.189032,-0.04668 2.616123,-0.249545 3.071264,-1.486756 0.755525,-1.762971 2.580737,-2.732045 3.617939,-4.311654 1.51898,-1.592104 2.82404,-3.361736 4.36978,-4.926245 1.05388,-0.802577 2.07373,-1.633147 2.86234,-2.68508 0.36656,-0.495212 1.20486,-0.789242 1.51857,-0.07831 0.88744,1.558173 1.21653,3.477438 0.7415,5.205713 1.31548,-1.624792 2.13849,-3.570461 2.77904,-5.516331 -0.5096,-1.379063 -0.50806,-3.033575 -1.51067,-4.190615 -0.19197,-0.135172 -0.43903,-0.170902 -0.67219,-0.158645 z"
       id="path111" />
    <path
       style="fill:#ffff00;stroke-width:0.152034"
       d="m 112.80326,60.294348 c -0.66564,1.146065 -1.1593,2.444501 -1.95205,3.554024 -1.67218,2.710426 -3.69982,5.197972 -5.95943,7.48154 -0.25001,0.110519 -0.57349,0.974546 -0.0578,0.554244 2.94482,-2.498514 6.2943,-4.962769 7.7467,-8.584248 0.18565,-0.959382 0.56331,-2.080597 0.24048,-3.008459 z"
       id="path113" />
    <path
       style="fill:#ffff00;stroke-width:0.152034"
       d="m 111.62367,66.139282 c -2.17776,2.830906 -5.22901,4.899816 -7.77993,7.402074 -0.94475,1.114868 -1.96746,2.223994 -2.67831,3.480937 0.71755,0.40663 1.43504,1.016571 2.22359,1.212607 2.10994,-1.947137 3.7829,-4.313356 5.34336,-6.678029 0.99946,-1.764578 2.19856,-3.576791 2.89129,-5.417589 z"
       id="path115" />
    <path
       style="fill:#ffff00;stroke-width:0.152034"
       d="m 107.8438,37.005971 c -1.84199,3.469856 -5.14025,5.889283 -7.70504,8.824972 -0.204052,0.231592 -0.646419,0.890874 -0.312533,1.074554 1.512103,-0.770571 3.248313,-1.251125 4.578213,-2.293252 0.79772,-1.731652 2.35363,-2.998485 3.4342,-4.5633 0.65006,-0.801857 1.88991,-1.298239 2.30598,-2.17434 -0.79107,-0.375284 -1.08636,-1.337143 -1.83354,-1.805424 -0.15576,0.312264 -0.31152,0.624527 -0.46728,0.93679 z"
       id="path117" />
    <path
       style="fill:#b3b3b3;stroke-width:0.152034"
       d="m 109.07204,30.494263 c -0.76133,1.470742 -1.0186,3.224793 -0.86767,4.855068 1.01636,0.704258 1.7464,1.854119 2.72553,2.658107 0.9115,-0.277333 2.09225,-0.354573 2.74772,-1.068753 -0.13038,-1.101768 -1.53655,-1.601151 -1.97582,-2.599521 -0.59731,-1.430522 -1.6065,-2.725386 -2.62976,-3.844901 z"
       id="path119" />
    <ellipse
       style="opacity:1;mix-blend-mode:color;fill:#00d700;fill-opacity:1;stroke-width:0.264583;filter:url(#filter2932)"
       id="path121"
       cx="136.63863"
       cy="93.624039"
       rx="26.781242"
       ry="27.566488" />
    <rect
       style="opacity:1;fill:#ffffff;fill-opacity:1;stroke-width:0.264583;filter:url(#filter3380)"
       id="rect2936"
       width="5.6126599"
       height="35.680481"
       x="128.53955"
       y="76.390457"
       transform="matrix(1.4377734,0,0,1.042646,-51.662069,-2.9399859)" />
    <rect
       style="opacity:1;fill:#ffffff;fill-opacity:1;stroke-width:0.264583;filter:url(#filter3396)"
       id="rect2938"
       width="32.072342"
       height="5.2117558"
       x="115.44335"
       y="91.357544"
       transform="matrix(1.1615576,0,0,1.5530649,-15.915463,-51.66818)" />
  </g>
</svg>
