<?xml version="1.0" encoding="UTF-8" standalone="no"?>
<svg
   xmlns:dc="http://purl.org/dc/elements/1.1/"
   xmlns:cc="http://creativecommons.org/ns#"
   xmlns:rdf="http://www.w3.org/1999/02/22-rdf-syntax-ns#"
   xmlns:svg="http://www.w3.org/2000/svg"
   xmlns="http://www.w3.org/2000/svg"
   xmlns:sodipodi="http://sodipodi.sourceforge.net/DTD/sodipodi-0.dtd"
   xmlns:inkscape="http://www.inkscape.org/namespaces/inkscape"
   width="146.27678mm"
   height="105.96097mm"
   viewBox="0 0 146.27678 105.96097"
   version="1.1"
   id="svg8"
   inkscape:version="1.0.2 (e86c870879, 2021-01-15, custom)"
   sodipodi:docname="clearGrid.svg">
  <defs
     id="defs2">
    <rect
       x="60.653098"
       y="52.496254"
       width="51.315749"
       height="50.78121"
       id="rect181" />
    <rect
       x="64.394871"
       y="50.358098"
       width="56.928409"
       height="61.471991"
       id="rect171" />
    <rect
       x="52.635012"
       y="36.994622"
       width="66.550112"
       height="78.309972"
       id="rect161" />
  </defs>
  <sodipodi:namedview
     id="base"
     pagecolor="#ffffff"
     bordercolor="#666666"
     borderopacity="1.0"
     inkscape:pageopacity="0.0"
     inkscape:pageshadow="2"
     inkscape:zoom="0.7"
     inkscape:cx="-218.50557"
     inkscape:cy="299.30397"
     inkscape:document-units="mm"
     inkscape:current-layer="layer1"
     inkscape:document-rotation="0"
     showgrid="false"
     inkscape:window-width="1920"
     inkscape:window-height="1017"
     inkscape:window-x="-8"
     inkscape:window-y="-8"
     inkscape:window-maximized="1" />
  <metadata
     id="metadata5">
    <rdf:RDF>
      <cc:Work
         rdf:about="">
        <dc:format>image/svg+xml</dc:format>
        <dc:type
           rdf:resource="http://purl.org/dc/dcmitype/StillImage" />
        <dc:title />
      </cc:Work>
    </rdf:RDF>
  </metadata>
  <g
     inkscape:label="Layer 1"
     inkscape:groupmode="layer"
     id="layer1"
     transform="translate(-35.529762,-28.976536)">
    <rect
       style="fill:#808080;stroke-width:0.275266"
       id="rect10"
       width="146.27678"
       height="105.96097"
       x="35.718761"
       y="28.976536" />
    <text
       xml:space="preserve"
       id="text159"
       style="fill:black;fill-opacity:1;line-height:1.25;stroke:none;font-family:sans-serif;font-style:normal;font-weight:normal;font-size:10.58333333px;white-space:pre;shape-inside:url(#rect161);" />
    <text
       xml:space="preserve"
       style="font-style:normal;font-weight:normal;font-size:10.5833px;line-height:1.25;font-family:sans-serif;fill:#000000;fill-opacity:1;stroke:none;stroke-width:0.264583"
       x="80.163773"
       y="51.159904"
       id="text167"><tspan
         sodipodi:role="line"
         id="tspan165"
         x="80.163773"
         y="51.159904"
         style="stroke-width:0.264583" /></text>
    <text
       xml:space="preserve"
       id="text169"
       style="fill:black;fill-opacity:1;line-height:1.25;stroke:none;font-family:sans-serif;font-style:normal;font-weight:normal;font-size:9.87777778px;white-space:pre;shape-inside:url(#rect171);" />
    <text
       xml:space="preserve"
       style="font-size:14.1111px;line-height:1.25;font-family:sans-serif;stroke-width:0.264583"
       x="73.21476"
       y="62.117958"
       id="text177"><tspan
         id="tspan175"
         x="73.21476"
         y="62.117958"
         style="stroke-width:0.264583"
         sodipodi:role="line" /></text>
    <text
       xml:space="preserve"
       id="text179"
       style="line-height:1.25;font-family:Arial;font-size:14.11111111px;white-space:pre;shape-inside:url(#rect181);-inkscape-font-specification:Arial;font-weight:normal;font-style:normal;font-stretch:normal;font-variant:normal;" />
    <path
       style="fill:#f9f9f9;stroke:#000000;stroke-width:0.439375"
       d="m 48.234844,46.072672 c 0.862477,15.906437 0.959266,31.832711 0.485866,47.744022 -1.111691,6.568136 -2.251459,13.143096 -1.879224,19.748806 -0.0018,2.58188 -0.0024,5.16377 -0.0049,7.74566 11.349237,0.8565 22.957767,0.31239 34.408974,0.48985 29.90121,-0.14806 59.79543,0.17764 89.68384,0.57216 2.53384,-6.29513 0.91485,-12.80298 0.41413,-19.16842 -3.27509,-13.985144 -0.99481,-28.112517 2.17724,-42.043758 -0.12538,-5.483975 4.88699,-10.701764 3.74451,-16.203893 -41.63454,-0.223271 -83.290305,-0.0813 -124.90859,-0.698299 -4.19374,-0.180894 -5.495863,-0.845544 -4.121289,1.813872 z m 20.890275,11.859824 c 21.283732,0.458423 42.575151,0.33711 63.868121,0.168511 9.05704,-0.04033 17.82622,1.421706 26.61266,2.28797 0.7267,0.886739 -3.17857,0.01708 -4.05021,0.17243 -10.46555,-1.115368 -21.02448,-2.141805 -31.78583,-1.875641 -20.34831,0.07033 -40.831561,0.584584 -61.084579,-0.545569 1.425956,-0.390496 4.591273,-0.118428 6.439838,-0.207701 z m 54.014611,19.97059 c 9.31813,0.112847 19.05117,-0.153765 28.12958,0.348128 -28.55143,0.66794 -57.25105,0.0292 -85.795324,0.540152 -1.605031,-0.647587 6.886861,-0.510608 3.675496,-0.563669 17.976043,-0.457654 35.997588,-0.281681 53.990248,-0.324611 z M 97.465163,99.360889 c 21.415207,0.191099 42.883667,-0.04787 64.258257,0.676651 2.23017,-0.0704 1.21261,0.92061 -0.4543,0.51991 -28.70371,-0.40117 -57.4713,-0.17483 -86.134122,-0.986903 7.119304,-0.406043 14.985839,-0.140574 22.330165,-0.209658 z"
       id="path199" />
    <path
       style="fill:#000000;stroke:#000000;stroke-width:0.248"
       id="path454"
       d="m 78.618835,52.430716 c 0.123708,0.558656 0.226719,0.957868 0.280016,1.550847 0.221721,2.466758 0.02761,4.966192 -0.131223,7.428336 -0.09017,0.917784 -0.172926,1.836327 -0.27052,2.753352 -0.35659,3.350593 -0.84722,6.678311 -1.467951,9.990854 -0.701627,3.744238 -1.145743,5.580764 -1.985311,9.350917 -0.964909,4.028282 -2.001544,8.040143 -3.084132,12.038407 -0.602268,2.224326 -1.245134,4.437311 -1.845408,6.662261 -0.382455,1.50518 -0.773917,3.01554 -0.980818,4.55706 -0.04214,0.72236 -0.126783,1.43695 -0.258212,2.14825 -0.06498,0.41914 -0.09411,0.8417 -0.14527,1.26274 0,0 2.483046,-1.22726 2.483046,-1.22726 v 0 c 0.05185,-0.4195 0.09435,-0.84064 0.167722,-1.25711 0.121759,-0.71426 0.193059,-1.43225 0.243195,-2.1549 0.191984,-1.49617 0.491696,-2.9776 0.827952,-4.44727 0.525584,-2.192633 1.095521,-4.37327 1.6354,-6.56234 0.981374,-3.979227 1.92944,-7.966932 2.889906,-11.951226 1.023189,-4.430446 2.079633,-8.8582 2.863779,-13.339355 0.391716,-2.238539 0.589981,-3.916889 0.851749,-6.161096 0.108019,-0.926065 0.205497,-1.853329 0.308245,-2.779993 0.07166,-0.821332 0.159385,-1.641422 0.214979,-2.463998 0.08194,-1.212487 0.09988,-2.424055 0.09702,-3.638581 -0.0011,-0.489786 0.006,-0.980179 -0.02122,-1.469211 -0.02659,-0.47806 -0.144068,-1.140987 -0.223803,-1.632116 0,0 -2.449132,1.341432 -2.449132,1.341432 z" />
    <path
       style="fill:#000000;stroke:#000000;stroke-width:0.248"
       id="path456"
       d="m 100.32472,54.878956 c 0.39474,2.277858 0.15125,4.629277 -0.0997,6.908212 -0.246873,2.241844 -0.585444,4.431088 -0.909649,6.663216 -1.177208,8.516821 -2.50212,17.011285 -3.897037,25.494795 -0.944094,5.694286 -1.965391,11.375781 -3.046212,17.045671 -0.09417,0.49392 -0.188346,0.98783 -0.282519,1.48176 0,0 2.363023,-1.15314 2.363023,-1.15314 v 0 c 0.07631,-0.48493 0.152622,-0.96985 0.228933,-1.45478 0.922345,-5.6402 1.92088,-11.267901 2.7779,-16.918739 0.435581,-2.755482 0.880899,-5.509432 1.309783,-8.265964 0.895379,-5.754778 1.693178,-11.524649 2.660828,-17.268193 0.25228,-1.669309 0.76657,-5.010459 0.98813,-6.714 0.30635,-2.355451 0.62082,-4.767014 0.36592,-7.143059 0,0 -2.4594,1.324221 -2.4594,1.324221 z" />
    <path
       style="fill:#000000;stroke:#000000;stroke-width:0.248"
       id="path458"
       d="m 120.71181,54.218262 c 0.23812,2.641497 -0.3909,5.28764 -0.89382,7.860908 -0.61479,3.145579 -0.95001,4.655857 -1.62538,7.833567 -1.62415,8.384436 -3.67356,16.67638 -5.53089,25.010167 -0.94492,4.206148 -1.82869,8.425036 -2.49356,12.685116 -0.13132,0.85039 -0.23635,1.70436 -0.29882,2.56251 0,0 2.48542,-1.24847 2.48542,-1.24847 v 0 c 0.0345,-0.83253 0.10355,-1.66298 0.20401,-2.49029 0.52698,-4.20838 1.36715,-8.365055 2.20051,-12.52164 1.76881,-8.338585 3.75415,-16.629727 5.46842,-24.980236 0.85479,-3.875736 0.90683,-4.096213 1.73012,-7.887827 0.57756,-2.659885 1.31669,-5.365239 1.21544,-8.112481 0,0 -2.46145,1.288676 -2.46145,1.288676 z" />
    <path
       style="fill:#000000;stroke:#000000;stroke-width:0.248"
       id="path460"
       d="m 142.99734,54.376842 c -1.09275,4.711084 -1.79358,9.502318 -2.53644,14.277806 -1.06598,6.751669 -1.93552,13.531569 -2.89695,20.29846 -0.43593,3.011585 -0.94609,6.011426 -1.4289,9.015584 -0.40077,2.250878 -0.79057,4.503368 -1.18934,6.754528 -0.2181,1.62071 -0.45944,3.2358 -0.75499,4.84445 0,0 2.46929,-1.20441 2.46929,-1.20441 v 0 c 0.26988,-1.602 0.48679,-3.21043 0.70314,-4.82024 0.37815,-2.25493 0.77651,-4.5063 1.18423,-6.756052 0.4642,-2.966394 0.85314,-5.943483 1.22522,-8.922755 0.83337,-6.758075 1.68387,-13.516237 2.78608,-20.236709 0.80121,-4.841253 1.55223,-9.719355 2.94652,-14.433309 0,0 -2.50786,1.182647 -2.50786,1.182647 z" />
    <path
       sodipodi:type="star"
       style="fill:#00ffff;stroke:#000000;stroke-width:0.248"
       id="path851"
       sodipodi:sides="10"
       sodipodi:cx="57.452381"
       sodipodi:cy="49.198261"
       sodipodi:r1="14.57874"
       sodipodi:r2="7.2893696"
       sodipodi:arg1="0.64238608"
       sodipodi:arg2="0.95654534"
       inkscape:flatsided="false"
       inkscape:rounded="0"
       inkscape:randomized="0"
       d="m 69.125119,57.932495 -7.471535,-2.777322 0.108387,7.970295 -4.41213,-6.638558 -4.597136,6.511812 0.332559,-7.964092 -7.546708,2.566038 4.950222,-6.247612 -7.613694,-2.359875 7.677067,-2.144757 -4.772508,-6.384397 7.471535,2.777322 -0.108387,-7.970295 4.41213,6.638559 4.597136,-6.511812 -0.332559,7.964091 7.546708,-2.566038 -4.950222,6.247613 7.613695,2.359875 -7.677068,2.144757 z"
       transform="matrix(1.5677784,0,0,1.4189243,-31.01917,-20.401695)" />
    <path
       sodipodi:type="star"
       style="fill:#00ffff;stroke:#000000;stroke-width:0.248"
       id="path853"
       sodipodi:sides="10"
       sodipodi:cx="67.090775"
       sodipodi:cy="71.309868"
       sodipodi:r1="7.1040416"
       sodipodi:r2="3.5520213"
       sodipodi:arg1="0.49934672"
       sodipodi:arg2="0.81350599"
       inkscape:flatsided="false"
       inkscape:rounded="0"
       inkscape:randomized="0"
       d="m 73.327381,74.711653 -3.796528,-0.820531 0.605923,3.836634 -2.58916,-2.895368 -1.764914,3.460055 -0.39282,-3.864271 -3.461615,1.761852 1.953563,-3.357155 -3.836096,-0.609318 3.553753,-1.56772 -2.745319,-2.747749 3.796528,0.820532 -0.605923,-3.836634 2.58916,2.895367 1.764914,-3.460054 0.39282,3.864271 3.461615,-1.761852 -1.953563,3.357155 3.836096,0.609318 -3.553753,1.567719 z"
       transform="matrix(2.4338119,0,0,1.994993,-98.276497,-57.813996)" />
    <path
       sodipodi:type="star"
       style="fill:#00ffff;fill-opacity:1;stroke:#000000;stroke-width:0.248"
       id="path857"
       sodipodi:sides="10"
       sodipodi:cx="74.177826"
       sodipodi:cy="50.143204"
       sodipodi:r1="3.8138621"
       sodipodi:r2="1.906931"
       sodipodi:arg1="0.83798123"
       sodipodi:arg2="1.1521405"
       inkscape:flatsided="false"
       inkscape:rounded="0"
       inkscape:randomized="0"
       d="m 76.729165,52.978025 -1.776109,-1.09258 -0.377419,2.050817 -0.794701,-1.927887 -1.510778,1.437304 0.490257,-2.026806 -2.067072,0.274791 1.587954,-1.351555 -1.833814,-0.992684 2.079105,-0.160055 -0.900101,-1.880988 1.776109,1.09258 0.377419,-2.050816 0.7947,1.927886 1.510779,-1.437304 -0.490257,2.026806 2.067071,-0.27479 -1.587953,1.351554 1.833814,0.992685 -2.079105,0.160055 z"
       transform="matrix(2.7651602,0,0,2.9649504,-113.86808,-93.350796)" />
  </g>
  <g
     inkscape:groupmode="layer"
     id="layer2"
     inkscape:label="Layer 2" />
</svg>
