<?xml version="1.0" encoding="UTF-8" standalone="no"?>
<svg
   xmlns:dc="http://purl.org/dc/elements/1.1/"
   xmlns:cc="http://creativecommons.org/ns#"
   xmlns:rdf="http://www.w3.org/1999/02/22-rdf-syntax-ns#"
   xmlns:svg="http://www.w3.org/2000/svg"
   xmlns="http://www.w3.org/2000/svg"
   xmlns:sodipodi="http://sodipodi.sourceforge.net/DTD/sodipodi-0.dtd"
   xmlns:inkscape="http://www.inkscape.org/namespaces/inkscape"
   width="146.27678mm"
   height="105.96097mm"
   viewBox="0 0 146.27678 105.96097"
   version="1.1"
   id="svg8"
   inkscape:version="1.0.2 (e86c870879, 2021-01-15, custom)"
   sodipodi:docname="clearGrid.svg">
  <defs
     id="defs2">
    <rect
       x="60.653098"
       y="52.496254"
       width="51.315749"
       height="50.78121"
       id="rect181" />
    <rect
       x="64.394871"
       y="50.358098"
       width="56.928409"
       height="61.471991"
       id="rect171" />
    <rect
       x="52.635012"
       y="36.994622"
       width="66.550112"
       height="78.309972"
       id="rect161" />
  </defs>
  <sodipodi:namedview
     id="base"
     pagecolor="#ffffff"
     bordercolor="#666666"
     borderopacity="1.0"
     inkscape:pageopacity="0.0"
     inkscape:pageshadow="2"
     inkscape:zoom="1.4"
     inkscape:cx="587.29002"
     inkscape:cy="115.51655"
     inkscape:document-units="mm"
     inkscape:current-layer="layer1"
     inkscape:document-rotation="0"
     showgrid="false"
     inkscape:window-width="1920"
     inkscape:window-height="1017"
     inkscape:window-x="-8"
     inkscape:window-y="-8"
     inkscape:window-maximized="1" />
  <metadata
     id="metadata5">
    <rdf:RDF>
      <cc:Work
         rdf:about="">
        <dc:format>image/svg+xml</dc:format>
        <dc:type
           rdf:resource="http://purl.org/dc/dcmitype/StillImage" />
        <dc:title></dc:title>
      </cc:Work>
    </rdf:RDF>
  </metadata>
  <g
     inkscape:label="Layer 1"
     inkscape:groupmode="layer"
     id="layer1"
     transform="translate(-35.529762,-28.976536)">
    <rect
       style="fill:#808080;stroke-width:0.275266"
       id="rect10"
       width="146.27678"
       height="105.96097"
       x="35.718758"
       y="28.976536" />
    <text
       xml:space="preserve"
       id="text159"
       style="fill:black;fill-opacity:1;line-height:1.25;stroke:none;font-family:sans-serif;font-style:normal;font-weight:normal;font-size:10.58333333px;white-space:pre;shape-inside:url(#rect161);" />
    <text
       xml:space="preserve"
       style="font-style:normal;font-weight:normal;font-size:10.5833px;line-height:1.25;font-family:sans-serif;fill:#000000;fill-opacity:1;stroke:none;stroke-width:0.264583"
       x="80.163773"
       y="51.159904"
       id="text167"><tspan
         sodipodi:role="line"
         id="tspan165"
         x="80.163773"
         y="51.159904"
         style="stroke-width:0.264583"></tspan></text>
    <text
       xml:space="preserve"
       id="text169"
       style="fill:black;fill-opacity:1;line-height:1.25;stroke:none;font-family:sans-serif;font-style:normal;font-weight:normal;font-size:9.87777778px;white-space:pre;shape-inside:url(#rect171);" />
    <text
       xml:space="preserve"
       style="font-size:14.1111px;line-height:1.25;font-family:sans-serif;stroke-width:0.264583"
       x="73.21476"
       y="62.117958"
       id="text177"><tspan
         id="tspan175"
         x="73.21476"
         y="62.117958"
         style="stroke-width:0.264583"
         sodipodi:role="line"></tspan></text>
    <text
       xml:space="preserve"
       id="text179"
       style="line-height:1.25;font-family:Arial;font-size:14.11111111px;white-space:pre;shape-inside:url(#rect181);-inkscape-font-specification:Arial;font-weight:normal;font-style:normal;font-stretch:normal;font-variant:normal;" />
    <path
       style="fill:none;stroke:#000000;stroke-width:0.264583px;stroke-linecap:butt;stroke-linejoin:miter;stroke-opacity:1"
       d="m 61.722175,43.141821 c 0.815592,6.932532 0.534538,3.018609 0.534538,11.759859 0,9.061837 0.34834,18.204715 0,27.261492 -0.125391,3.260225 -0.801807,6.355937 -0.801807,9.621703 0,3.563593 0,7.127187 0,10.690785 0,1.2654 -0.04354,2.92545 0,2.93996 3.446233,1.14874 15.504766,0.26727 20.045215,0.26727 9.62356,0 19.678059,0.53454 29.132379,0.53454"
       id="path187" />
    <path
       style="fill:none;stroke:#000000;stroke-width:0.264583px;stroke-linecap:butt;stroke-linejoin:miter;stroke-opacity:1"
       d="m 61.722175,43.141821 c 8.886759,0.839402 17.816481,0.534539 26.726952,0.534539 7.216277,0 14.432553,0 21.648833,0 0.85887,0 4.68922,0.02401 4.81085,0.267269 1.19216,2.384324 -1.33635,8.469092 -1.33635,10.958051 0,4.629958 -1.16927,9.487327 -1.33634,14.165284 -0.19555,5.475198 -0.70357,13.432155 0,18.708867 0.51486,3.861488 0.8018,7.518686 0.8018,11.49259 0,1.442169 -0.0331,6.180349 -0.8018,6.949009 -0.37798,0.37798 -1.06908,0 -1.60362,0"
       id="path189" />
    <path
       style="fill:none;stroke:#000000;stroke-width:0.264583px;stroke-linecap:butt;stroke-linejoin:miter;stroke-opacity:1"
       d="m 68.136644,54.63441 c 6.801289,0 -4.655526,-0.02769 13.898014,0.534539 5.085406,0.154103 12.544984,-0.878415 17.63979,0 4.930912,0.850157 4.524062,1.336347 7.750812,1.336347"
       id="path193" />
    <path
       style="fill:none;stroke:#000000;stroke-width:0.264583px;stroke-linecap:butt;stroke-linejoin:miter;stroke-opacity:1"
       d="M 69.205722,70.937851 103.95076,70.670583"
       id="path195" />
    <path
       style="fill:none;stroke:#000000;stroke-width:0.264583px;stroke-linecap:butt;stroke-linejoin:miter;stroke-opacity:1"
       d="m 73.214765,87.775831 35.546845,0.534538"
       id="path197" />
    <path
       style="fill:#f9f9f9;stroke:#000000;stroke-width:0.946839"
       d="m 100.92251,60.88585 c 1.32593,48.04848 1.47473,96.15689 0.74695,144.2201 -1.709073,19.84033 -3.461292,39.70128 -2.889058,59.65512 -0.0028,7.79909 -0.0056,15.59818 -0.0084,23.39727 17.447838,2.58721 35.294268,0.94362 52.898838,1.47969 45.96877,-0.44725 91.92686,0.53661 137.87596,1.72833 3.89544,-19.01569 1.40645,-38.67392 0.63668,-57.90196 -5.03499,-42.24485 -1.5294,-84.91933 3.34717,-127.00135 -0.19275,-16.565412 7.51308,-32.326755 5.75663,-48.947006 -64.00708,-0.674433 -128.04679,-0.245602 -192.0289,-2.109351 -6.44728,-0.546423 -8.449086,-2.554129 -6.33587,5.479157 z m 32.11575,35.824902 c 32.72069,1.384757 65.45317,1.018304 98.18801,0.509023 13.92389,-0.121819 27.40524,4.294535 40.91315,6.911255 1.11719,2.67857 -4.88661,0.0516 -6.22664,0.52086 -16.08927,-3.36919 -32.32211,-6.46974 -48.86613,-5.66574 -31.28258,0.212444 -62.77262,1.76585 -93.90868,-1.647998 2.19217,-1.179567 7.0584,-0.357724 9.90029,-0.6274 z m 83.03966,60.325048 c 14.32528,0.34087 29.28843,-0.46448 43.24519,1.05159 -43.89369,2.01764 -88.01521,0.0882 -131.89791,1.63163 -2.46751,-1.95616 10.58755,-1.54239 5.65054,-1.70267 27.63554,-1.38243 55.3411,-0.85087 83.00218,-0.98055 z m -39.47091,64.81747 c 32.92278,0.57725 65.92743,-0.14461 98.78779,2.04397 3.42854,-0.21261 1.86421,2.78086 -0.69843,1.57047 -44.12781,-1.21179 -88.35382,-0.5281 -132.41877,-2.98113 10.94489,-1.22653 23.03857,-0.42463 34.32941,-0.63331 z"
       id="path199"
       transform="matrix(0.26458333,0,0,0.26458333,35.529762,28.976536)" />
    <path
       style="fill:none;stroke:#000000;stroke-width:0.264583px;stroke-linecap:butt;stroke-linejoin:miter;stroke-opacity:1"
       d="m 75.62019,57.574374 c -0.298423,0.269992 -2.180349,-0.407961 -2.405425,0.267269 -1.17375,3.521253 1.872562,3.462774 2.405425,-0.267269 0.02998,-0.20987 1.016471,-10.318294 1.069078,-10.42351 0.119528,-0.239054 0.536176,-0.02951 0.801809,0 6.714175,0.746019 5.61266,3.445407 5.61266,8.552623 0,0.973926 -0.41578,5.538407 -1.870885,4.810853 -0.08599,-0.04299 0,-1.195459 0,-1.336347 0,-0.172038 -0.09831,-1.019927 0,-1.069078 0.594558,-0.297281 1.417166,-0.267272 2.138156,-0.267272"
       id="path201" />
    <path
       style="fill:none;stroke:#000000;stroke-width:0.264583px;stroke-linecap:butt;stroke-linejoin:miter;stroke-opacity:1"
       d="m 95.911459,57.513737 c -1.206408,-0.02946 -1.965595,-0.268221 -2.740329,0.661459 -1.278568,1.534281 1.981533,2.27354 2.55134,1.13393 0.124417,-0.248836 -0.0507,-0.76059 0,-1.039434 0.04646,-0.255551 0.188989,-0.496216 0.188989,-0.755955 0,-0.342966 -0.221671,-0.952042 -0.283483,-1.322916 -0.293949,-1.763692 -0.03087,-5.041888 0.472469,-6.803571 0.07768,-0.271872 0.11652,-1.192188 0.377976,-1.322917 0.450763,-0.225381 1.007938,0 1.511906,0 2.469903,0 5.169713,-0.135145 7.559523,0.661459 0.17489,0.0583 -0.1674,0.720942 -0.28348,1.41741 -0.15857,0.951419 -0.45945,2.984739 -0.75595,3.874256 -0.37232,1.116938 -0.14606,2.336685 -0.37798,3.496279 -0.14961,0.748046 -0.0647,1.522093 -0.18899,2.267858 -0.0454,0.272436 -0.22364,0.850447 -0.28348,0.850447 -0.17197,0 -0.48387,-0.31878 -0.66146,-0.377975 -0.4024,-0.134136 -1.37183,-0.0033 -1.6064,-0.472472 -0.16903,-0.338072 0,-0.755952 0,-1.133928 0,-0.04861 -0.0861,-0.953346 0,-1.039434 0.5036,-0.503597 2.16536,-0.196993 2.45685,0.09449"
       id="path205" />
    <path
       style="fill:none;stroke:#000000;stroke-width:0.264583px;stroke-linecap:butt;stroke-linejoin:miter;stroke-opacity:1"
       d="m 76.540178,48.962027 c 0.741849,0 -0.147405,-0.01528 1.700893,0.377976 0.618151,0.131522 1.311206,0.194065 1.937128,0.283482 0.205957,0.02942 0.411475,-0.02033 0.614212,0.04725 0.287324,0.09577 1.630285,0.614211 1.842632,0.614211"
       id="path229" />
    <path
       style="fill:none;stroke:#000000;stroke-width:0.264583px;stroke-linecap:butt;stroke-linejoin:miter;stroke-opacity:1"
       d="m 95.816963,49.954214 c 1.102431,0 2.204863,0 3.307291,0 1.115236,0 2.878706,-0.170761 3.968746,0.04725 0.28385,0.05677 0.64153,0.08106 0.94495,0.141741 0.3256,0.06512 0.62255,0.283483 0.99218,0.283483"
       id="path231" />
    <path
       style="fill:none;stroke:#000000;stroke-width:0.264583px;stroke-linecap:butt;stroke-linejoin:miter;stroke-opacity:1"
       d="m 143.23938,44.210899 c -1.71388,0.762786 -3.16596,1.850248 -4.81085,2.672695 -5.51235,2.756176 -11.32429,5.048416 -17.10525,7.216277 -4.15997,1.559986 -9.16602,6.630797 -13.09621,9.087165 -3.29636,2.060223 -11.069109,4.821232 -12.561666,8.552625 -0.381868,0.954667 0.188164,2.563635 -0.267269,3.474503 -0.603684,1.207365 -0.905269,3.534851 -0.267268,4.810852 1.550701,3.101404 5.974893,1.870885 8.819893,1.870885 1.87357,0 2.87906,-0.740897 4.00904,-1.870885 0.96366,-0.963655 2.72828,-0.336079 4.00905,-0.801809 1.07591,-0.391242 1.73127,-1.600203 2.67269,-2.138156 3.46077,-1.977581 7.03453,-4.113811 10.42351,-6.1472 3.02223,-1.81334 0.67988,-0.05285 3.47451,-1.069078 1.62661,-0.591494 2.98896,-1.96605 4.54358,-2.672696 5.80226,-2.637391 -1.80227,1.541891 3.4745,-1.336347 1.27205,-0.693843 2.05245,-1.635569 3.20724,-2.405425 2.19107,-1.460714 5.15227,-2.357845 7.21627,-4.009043 0.94031,-0.752248 1.83755,-1.633734 2.93997,-2.405425 0.90981,-0.636871 1.273,-1.446035 2.13815,-2.138157 1.08589,-0.868708 3.89239,-1.370303 4.54359,-2.672696 1.61392,-3.227838 2.87161,-6.25165 4.81085,-9.354433 0.4857,-0.77712 4.35913,-7.483546 3.74177,-7.483546 -1.37155,0 -4.22675,0.940373 -5.61266,1.336347 -1.49083,0.425951 -5.20413,0.529457 -6.41447,1.336348 -1.7114,1.140934 -3.44362,1.989081 -5.34539,2.939965 -0.0783,0.03913 -0.89346,1.204636 -1.06908,1.336347 -0.68929,0.51697 -1.71599,0.227279 -2.40542,0.801809 -2.59517,2.162643 -2.93997,-0.609256 -2.93997,1.336348"
       id="path239" />
    <path
       style="fill:none;stroke:#000000;stroke-width:0.264583px;stroke-linecap:butt;stroke-linejoin:miter;stroke-opacity:1"
       d="m 143.23938,44.210899 c -0.13363,-0.311815 -0.73002,-1.017722 -0.4009,-0.935443 0.12819,0.03205 2.97939,3.05278 3.34086,3.474503 1.12537,1.312924 3.05452,1.985437 4.27632,3.207235 0.49562,0.495622 0.51687,1.167374 0.80181,1.737251 0.44412,0.888248 1.29681,2.098624 1.87088,2.672696"
       id="path241" />
    <path
       style="fill:none;stroke:#000000;stroke-width:0.264583px;stroke-linecap:butt;stroke-linejoin:miter;stroke-opacity:1"
       d="m 159.40919,36.860987 c 0.65673,1.697725 1.04036,3.713053 2.27179,4.944486"
       id="path243" />
    <path
       style="fill:none;stroke:#000000;stroke-width:0.264583px;stroke-linecap:butt;stroke-linejoin:miter;stroke-opacity:1"
       d="m 100.34262,66.795175 c 1.26365,1.444167 0.83572,1.120243 2.80633,2.405425 2.04596,1.33432 4.09602,2.469073 5.47903,4.543581 0.66015,0.990235 1.15166,2.354376 2.00452,3.207234 0.57571,0.575718 1.23665,1.136957 1.60362,1.870887"
       id="path245" />
    <path
       style="fill:none;stroke:#000000;stroke-width:0.264583px;stroke-linecap:butt;stroke-linejoin:miter;stroke-opacity:1"
       d="m 103.01532,65.458825 c 0.94302,0.149789 1.31675,1.074563 2.00452,1.603619 1.04447,0.803439 2.20162,1.43378 3.20723,2.271789 0.94812,0.790101 1.67847,1.812107 2.53906,2.672696 0.2113,0.211297 0.55318,0.235152 0.80181,0.400905 0.61271,0.408472 1.21898,1.13797 1.87089,1.603616 0.78445,0.560324 1.53827,2.004523 2.40542,2.004523"
       id="path247" />
    <path
       style="fill:#ffff00;stroke:#000000;stroke-width:0.47342"
       d="m 291.26321,118.76564 c -8.12613,5.20194 -15.57847,11.53413 -24.3678,15.70217 -2.49375,1.5368 -5.74703,2.65225 -7.8466,4.4338 5.84854,6.74092 14.42839,10.44106 20.30721,17.22634 2.64139,2.3061 4.89539,5.65184 8.00567,7.13471 1.37735,-8.73965 1.33053,-17.76292 2.32907,-26.59542 0.43166,-5.94209 1.30335,-12.09354 1.57245,-17.9016 z"
       id="path251"
       transform="matrix(0.26458333,0,0,0.26458333,35.529762,28.976536)" />
    <path
       style="fill:#ffb380;stroke:#000000;stroke-width:0.47342"
       d="m 460.14019,31.519629 c -6.9381,0.812536 -14.02372,2.052294 -19.79366,6.285832 -5.4239,3.567493 -11.87416,5.581051 -16.80759,9.835177 -1.84614,3.303217 -5.25506,4.957004 -8.89211,5.363476 -1.61534,0.813516 -6.22043,2.018688 -5.00866,3.754928 6.17237,6.828255 12.39717,13.807303 20.57133,18.301735 3.76625,2.110507 6.55675,5.501132 7.66689,9.689158 1.76156,3.438716 3.66006,7.292378 6.72284,9.663529 3.61187,-0.654372 7.21056,-2.554242 10.11337,-4.813023 5.5535,-7.037683 8.44651,-15.764312 12.80154,-23.543008 2.86617,-5.646531 5.78039,-11.275622 9.14264,-16.647055 -5.08814,-5.095264 -6.56206,-12.490646 -9.10025,-18.980806 -2.47211,0.363352 -4.94422,0.726705 -7.41634,1.090057 z"
       id="path253"
       transform="matrix(0.26458333,0,0,0.26458333,35.529762,28.976536)" />
    <path
       style="fill:#000000;stroke:#000000;stroke-width:0.47342"
       d="m 486.86978,25.37585 c -5.91551,1.301227 -11.92605,2.695382 -17.6244,4.618685 2.07795,6.166689 3.63952,13.082433 8.23807,17.898641 4.40639,-7.349599 8.49791,-14.967476 11.88409,-22.848782 -0.83259,0.110485 -1.66517,0.22097 -2.49776,0.331456 z"
       id="path255"
       transform="matrix(0.26458333,0,0,0.26458333,35.529762,28.976536)" />
    <path
       style="fill:#cccccc;stroke:#000000;stroke-width:0.47342"
       d="m 289.66512,176.75668 c 0.23411,3.52251 -0.94699,7.52295 0.64614,10.76937 1.33525,0.66665 2.61649,-2.14927 3.82654,-2.67631 2.6739,-2.50043 5.71974,-4.56105 8.95031,-6.27104 -5.32975,-2.2823 -8.23284,-7.8852 -13.09351,-10.92918 -0.10983,3.03572 -0.21966,6.07144 -0.32948,9.10716 z"
       id="path259"
       transform="matrix(0.26458333,0,0,0.26458333,35.529762,28.976536)" />
    <path
       style="fill:none;stroke:#000000;stroke-width:0.264583px;stroke-linecap:butt;stroke-linejoin:miter;stroke-opacity:1"
       d="M 92.320685,79.625345 C 90.966269,78.963886 89.607838,78.31059 88.257439,77.64097 85.573916,76.310298 80.335708,73.897967 77.390626,71.876834 c -0.02688,-0.01844 -1.961375,-1.859214 -2.267858,-2.267858 -0.542652,-0.723537 -0.95418,-1.802317 -1.700892,-2.36235 -0.475443,-0.356582 -1.007938,-0.629963 -1.511906,-0.944941"
       id="path267" />
    <path
       style="fill:none;stroke:#000000;stroke-width:0.264583px;stroke-linecap:butt;stroke-linejoin:miter;stroke-opacity:1"
       d="m 82.39881,62.710911 c 3.033482,2.153613 6.595496,3.574867 9.449403,5.953124 0.454702,0.378918 1.560515,1.450727 1.889882,1.889882 0.198326,0.264435 0.310295,0.782765 0.566965,1.039434 0.453752,0.453753 1.25572,-0.265419 1.881293,-0.408403"
       id="path269" />
  </g>
  <g
     inkscape:groupmode="layer"
     id="layer2"
     inkscape:label="Layer 2">
    <path
       style="fill:#e9afaf;stroke:#000000;stroke-width:0.47342"
       d="m 240.76249,148.867 c -3.23404,2.21753 -6.46572,4.51361 -9.06671,7.47947 9.09102,0.49399 18.33047,-0.16454 27.3264,1.23901 1.69048,1.29905 -2.21753,1.03117 -2.84599,1.2331 -8.95609,0.68158 -17.94557,0.72617 -26.92293,0.70928 -3.06888,5.38079 -0.19319,12.0692 -3.06597,17.60664 -1.62616,6.21639 -2.855,14.32649 2.60824,19.05183 6.17108,5.27986 14.85239,3.36815 22.28261,3.49924 7.20149,-0.32132 15.46372,-0.17188 20.67452,-6.08775 3.87187,-4.19149 9.9024,-3.51881 15.05364,-3.91237 1.05438,-5.02201 -4.19659,-7.58835 -6.14798,-11.5423 -3.95345,-6.80149 -8.1667,-13.72467 -14.88431,-18.17189 -6.25097,-4.95048 -13.69447,-8.45384 -19.36674,-14.07064 -1.18445,-1.10495 -4.1561,2.50643 -5.64478,2.96638 z"
       id="path257"
       transform="scale(0.26458333)" />
    <path
       style="fill:#cccccc;stroke:#000000;stroke-width:0.47342"
       d="m 252.14939,142.06721 c -2.44436,1.25807 -6.51201,2.39929 -2.63564,4.6171 10.06142,7.87152 23.04681,13.18049 29.17681,25.11532 2.23094,4.24974 4.96226,8.24545 8.36828,11.64438 0.37721,-6.09906 0.3498,-12.21472 0.50508,-18.32184 -6.58976,-2.85034 -9.80686,-10.02903 -15.81892,-13.77908 -5.16027,-3.63405 -10.45038,-7.15752 -14.82994,-11.7549 -1.58855,0.82634 -3.17711,1.65268 -4.76567,2.47902 z"
       id="path261"
       transform="scale(0.26458333)" />
    <path
       style="fill:#ffff00;stroke:#000000;stroke-width:0.47342"
       d="m 407.59549,57.886189 c -15.24754,9.38469 -31.44241,17.241293 -48.03719,23.997172 -13.86057,6.009653 -28.29378,10.702188 -41.96109,17.125112 -8.09973,4.877357 -15.61172,10.648477 -23.03325,16.486007 -2.16316,16.46453 -4.20838,32.97663 -4.37996,49.60598 4.72147,4.18711 8.73552,9.4628 14.25262,12.5983 13.23407,-7.26422 25.7837,-15.7794 39.19865,-22.69982 2.51368,-0.52253 5.25682,0.20697 7.61463,-1.3426 9.40389,-4.42973 17.64816,-11.69417 27.99819,-13.87381 7.7849,-4.12719 13.90805,-10.8401 22.04381,-14.43512 9.04461,-4.59277 18.2701,-9.10582 25.77135,-16.08473 5.2056,-3.61822 9.0803,-8.74515 14.00834,-12.632603 1.16934,-0.356016 2.59553,-1.651644 0.86415,-2.385302 -3.55486,-4.123436 -5.33592,-9.352706 -8.02301,-13.963583 -6.09941,-5.720156 -14.00559,-9.322628 -19.44051,-15.849727 -2.22762,-2.216697 -4.26979,-4.793949 -6.87673,-6.545276 z"
       id="path249"
       transform="scale(0.26458333)" />
  </g>
</svg>
