<?xml version="1.0" encoding="UTF-8" standalone="no"?>
<svg
   xmlns:dc="http://purl.org/dc/elements/1.1/"
   xmlns:cc="http://creativecommons.org/ns#"
   xmlns:rdf="http://www.w3.org/1999/02/22-rdf-syntax-ns#"
   xmlns:svg="http://www.w3.org/2000/svg"
   xmlns="http://www.w3.org/2000/svg"
   xmlns:sodipodi="http://sodipodi.sourceforge.net/DTD/sodipodi-0.dtd"
   xmlns:inkscape="http://www.inkscape.org/namespaces/inkscape"
   width="146.27678mm"
   height="105.96097mm"
   viewBox="0 0 146.27678 105.96097"
   version="1.1"
   id="svg8"
   inkscape:version="1.0.2 (e86c870879, 2021-01-15, custom)"
   sodipodi:docname="importProject.svg">
  <defs
     id="defs2">
    <rect
       x="60.653098"
       y="52.496254"
       width="51.315749"
       height="50.78121"
       id="rect181" />
    <rect
       x="64.394871"
       y="50.358098"
       width="56.928409"
       height="61.471991"
       id="rect171" />
    <rect
       x="52.635012"
       y="36.994622"
       width="66.550112"
       height="78.309972"
       id="rect161" />
  </defs>
  <sodipodi:namedview
     id="base"
     pagecolor="#ffffff"
     bordercolor="#666666"
     borderopacity="1.0"
     inkscape:pageopacity="0.0"
     inkscape:pageshadow="2"
     inkscape:zoom="1.4"
     inkscape:cx="299.53491"
     inkscape:cy="115.89235"
     inkscape:document-units="mm"
     inkscape:current-layer="layer1"
     inkscape:document-rotation="0"
     showgrid="false"
     inkscape:window-width="1920"
     inkscape:window-height="1017"
     inkscape:window-x="-8"
     inkscape:window-y="-8"
     inkscape:window-maximized="1" />
  <metadata
     id="metadata5">
    <rdf:RDF>
      <cc:Work
         rdf:about="">
        <dc:format>image/svg+xml</dc:format>
        <dc:type
           rdf:resource="http://purl.org/dc/dcmitype/StillImage" />
        <dc:title />
      </cc:Work>
    </rdf:RDF>
  </metadata>
  <g
     inkscape:label="Layer 1"
     inkscape:groupmode="layer"
     id="layer1"
     transform="translate(-35.529762,-28.976536)">
    <rect
       style="fill:#808080;stroke-width:0.275266"
       id="rect10"
       width="146.27678"
       height="105.96097"
       x="35.718758"
       y="28.976536" />
    <path
       sodipodi:type="star"
       style="fill:#0000ff;stroke-width:0.264583"
       id="path36"
       sodipodi:sides="3"
       sodipodi:cx="144.00893"
       sodipodi:cy="68.035713"
       sodipodi:r1="33.709885"
       sodipodi:r2="16.85494"
       sodipodi:arg1="0.52888155"
       sodipodi:arg2="1.5760791"
       inkscape:flatsided="true"
       inkscape:rounded="0"
       inkscape:randomized="0"
       d="M 173.1131,85.044643 114.72668,84.736198 144.18701,34.326299 Z"
       inkscape:transform-center-x="0.0562643"
       inkscape:transform-center-y="-6.0444965"
       transform="matrix(0.63187818,0,0,0.72387079,41.402112,32.750148)" />
    <rect
       style="fill:#0000ff;stroke-width:0.178941"
       id="rect38"
       width="13.374755"
       height="34.200741"
       x="125.71082"
       y="91.84903" />
    <text
       xml:space="preserve"
       id="text159"
       style="fill:black;fill-opacity:1;line-height:1.25;stroke:none;font-family:sans-serif;font-style:normal;font-weight:normal;font-size:10.58333333px;white-space:pre;shape-inside:url(#rect161);" />
    <text
       xml:space="preserve"
       style="font-style:normal;font-weight:normal;font-size:10.5833px;line-height:1.25;font-family:sans-serif;fill:#000000;fill-opacity:1;stroke:none;stroke-width:0.264583"
       x="80.163773"
       y="51.159904"
       id="text167"><tspan
         sodipodi:role="line"
         id="tspan165"
         x="80.163773"
         y="51.159904"
         style="stroke-width:0.264583" /></text>
    <text
       xml:space="preserve"
       id="text169"
       style="fill:black;fill-opacity:1;line-height:1.25;stroke:none;font-family:sans-serif;font-style:normal;font-weight:normal;font-size:9.87777778px;white-space:pre;shape-inside:url(#rect171);" />
    <text
       xml:space="preserve"
       style="font-size:14.1111px;line-height:1.25;font-family:sans-serif;stroke-width:0.264583"
       x="73.21476"
       y="62.117958"
       id="text177"><tspan
         id="tspan175"
         x="73.21476"
         y="62.117958"
         style="stroke-width:0.264583"
         sodipodi:role="line" /></text>
    <text
       xml:space="preserve"
       id="text179"
       style="line-height:1.25;font-family:Arial;font-size:14.11111111px;white-space:pre;shape-inside:url(#rect181);-inkscape-font-specification:Arial;font-weight:normal;font-style:normal;font-stretch:normal;font-variant:normal;" />
    <path
       style="fill:none;stroke:#000000;stroke-width:0.264583px;stroke-linecap:butt;stroke-linejoin:miter;stroke-opacity:1"
       d="m 61.722175,43.141821 c 0.815592,6.932532 0.534538,3.018609 0.534538,11.759859 0,9.061837 0.34834,18.204715 0,27.261492 -0.125391,3.260225 -0.801807,6.355937 -0.801807,9.621703 0,3.563593 0,7.127187 0,10.690785 0,1.2654 -0.04354,2.92545 0,2.93996 3.446233,1.14874 15.504766,0.26727 20.045215,0.26727 9.62356,0 19.678059,0.53454 29.132379,0.53454"
       id="path187" />
    <path
       style="fill:none;stroke:#000000;stroke-width:0.264583px;stroke-linecap:butt;stroke-linejoin:miter;stroke-opacity:1"
       d="m 61.722175,43.141821 c 8.886759,0.839402 17.816481,0.534539 26.726952,0.534539 7.216277,0 14.432553,0 21.648833,0 0.85887,0 4.68922,0.02401 4.81085,0.267269 1.19216,2.384324 -1.33635,8.469092 -1.33635,10.958051 0,4.629958 -1.16927,9.487327 -1.33634,14.165284 -0.19555,5.475198 -0.70357,13.432155 0,18.708867 0.51486,3.861488 0.8018,7.518686 0.8018,11.49259 0,1.442169 -0.0331,6.180349 -0.8018,6.949009 -0.37798,0.37798 -1.06908,0 -1.60362,0"
       id="path189" />
    <path
       style="fill:none;stroke:#000000;stroke-width:0.264583px;stroke-linecap:butt;stroke-linejoin:miter;stroke-opacity:1"
       d="m 68.136644,54.63441 c 6.801289,0 -4.655526,-0.02769 13.898014,0.534539 5.085406,0.154103 12.544984,-0.878415 17.63979,0 4.930912,0.850157 4.524062,1.336347 7.750812,1.336347"
       id="path193" />
    <path
       style="fill:none;stroke:#000000;stroke-width:0.264583px;stroke-linecap:butt;stroke-linejoin:miter;stroke-opacity:1"
       d="M 69.205722,70.937851 103.95076,70.670583"
       id="path195" />
    <path
       style="fill:none;stroke:#000000;stroke-width:0.264583px;stroke-linecap:butt;stroke-linejoin:miter;stroke-opacity:1"
       d="m 73.214765,87.775831 35.546845,0.534538"
       id="path197" />
    <path
       style="fill:#f9f9f9;stroke:#000000;stroke-width:0.946839"
       d="m 100.92251,60.88585 c 1.32593,48.04848 1.47473,96.15689 0.74695,144.2201 -1.709073,19.84033 -3.461292,39.70128 -2.889058,59.65512 -0.0028,7.79909 -0.0056,15.59818 -0.0084,23.39727 17.447838,2.58721 35.294268,0.94362 52.898838,1.47969 45.96877,-0.44725 91.92686,0.53661 137.87596,1.72833 3.89544,-19.01569 1.40645,-38.67392 0.63668,-57.90196 -5.03499,-42.24485 -1.5294,-84.91933 3.34717,-127.00135 -0.19275,-16.565412 7.51308,-32.326755 5.75663,-48.947006 -64.00708,-0.674433 -128.04679,-0.245602 -192.0289,-2.109351 -6.44728,-0.546423 -8.449086,-2.554129 -6.33587,5.479157 z m 32.11575,35.824902 c 32.72069,1.384757 65.45317,1.018304 98.18801,0.509023 13.92389,-0.121819 27.40524,4.294535 40.91315,6.911255 1.11719,2.67857 -4.88661,0.0516 -6.22664,0.52086 -16.08927,-3.36919 -32.32211,-6.46974 -48.86613,-5.66574 -31.28258,0.212444 -62.77262,1.76585 -93.90868,-1.647998 2.19217,-1.179567 7.0584,-0.357724 9.90029,-0.6274 z m 83.03966,60.325048 c 14.32528,0.34087 29.28843,-0.46448 43.24519,1.05159 -43.89369,2.01764 -88.01521,0.0882 -131.89791,1.63163 -2.46751,-1.95616 10.58755,-1.54239 5.65054,-1.70267 27.63554,-1.38243 55.3411,-0.85087 83.00218,-0.98055 z m -39.47091,64.81747 c 32.92278,0.57725 65.92743,-0.14461 98.78779,2.04397 3.42854,-0.21261 1.86421,2.78086 -0.69843,1.57047 -44.12781,-1.21179 -88.35382,-0.5281 -132.41877,-2.98113 10.94489,-1.22653 23.03857,-0.42463 34.32941,-0.63331 z"
       id="path199"
       transform="matrix(0.26458333,0,0,0.26458333,35.529762,28.976536)" />
    <path
       style="fill:none;stroke:#000000;stroke-width:0.264583px;stroke-linecap:butt;stroke-linejoin:miter;stroke-opacity:1"
       d="m 75.62019,57.574374 c -0.298423,0.269992 -2.180349,-0.407961 -2.405425,0.267269 -1.17375,3.521253 1.872562,3.462774 2.405425,-0.267269 0.02998,-0.20987 1.016471,-10.318294 1.069078,-10.42351 0.119528,-0.239054 0.536176,-0.02951 0.801809,0 6.714175,0.746019 5.61266,3.445407 5.61266,8.552623 0,0.973926 -0.41578,5.538407 -1.870885,4.810853 -0.08599,-0.04299 0,-1.195459 0,-1.336347 0,-0.172038 -0.09831,-1.019927 0,-1.069078 0.594558,-0.297281 1.417166,-0.267272 2.138156,-0.267272"
       id="path201" />
    <path
       style="fill:none;stroke:#000000;stroke-width:0.264583px;stroke-linecap:butt;stroke-linejoin:miter;stroke-opacity:1"
       d="m 95.911459,57.513737 c -1.206408,-0.02946 -1.965595,-0.268221 -2.740329,0.661459 -1.278568,1.534281 1.981533,2.27354 2.55134,1.13393 0.124417,-0.248836 -0.0507,-0.76059 0,-1.039434 0.04646,-0.255551 0.188989,-0.496216 0.188989,-0.755955 0,-0.342966 -0.221671,-0.952042 -0.283483,-1.322916 -0.293949,-1.763692 -0.03087,-5.041888 0.472469,-6.803571 0.07768,-0.271872 0.11652,-1.192188 0.377976,-1.322917 0.450763,-0.225381 1.007938,0 1.511906,0 2.469903,0 5.169713,-0.135145 7.559523,0.661459 0.17489,0.0583 -0.1674,0.720942 -0.28348,1.41741 -0.15857,0.951419 -0.45945,2.984739 -0.75595,3.874256 -0.37232,1.116938 -0.14606,2.336685 -0.37798,3.496279 -0.14961,0.748046 -0.0647,1.522093 -0.18899,2.267858 -0.0454,0.272436 -0.22364,0.850447 -0.28348,0.850447 -0.17197,0 -0.48387,-0.31878 -0.66146,-0.377975 -0.4024,-0.134136 -1.37183,-0.0033 -1.6064,-0.472472 -0.16903,-0.338072 0,-0.755952 0,-1.133928 0,-0.04861 -0.0861,-0.953346 0,-1.039434 0.5036,-0.503597 2.16536,-0.196993 2.45685,0.09449"
       id="path205" />
    <path
       style="fill:none;stroke:#000000;stroke-width:0.264583px;stroke-linecap:butt;stroke-linejoin:miter;stroke-opacity:1"
       d="m 76.540178,48.962027 c 0.741849,0 -0.147405,-0.01528 1.700893,0.377976 0.618151,0.131522 1.311206,0.194065 1.937128,0.283482 0.205957,0.02942 0.411475,-0.02033 0.614212,0.04725 0.287324,0.09577 1.630285,0.614211 1.842632,0.614211"
       id="path229" />
    <path
       style="fill:none;stroke:#000000;stroke-width:0.264583px;stroke-linecap:butt;stroke-linejoin:miter;stroke-opacity:1"
       d="m 95.816963,49.954214 c 1.102431,0 2.204863,0 3.307291,0 1.115236,0 2.878706,-0.170761 3.968746,0.04725 0.28385,0.05677 0.64153,0.08106 0.94495,0.141741 0.3256,0.06512 0.62255,0.283483 0.99218,0.283483"
       id="path231" />
    <path
       style="fill:#000000;stroke:#000000;stroke-width:0.248"
       id="path873"
       d="m 71.786809,79.353221 c 4.130588,-0.155681 8.264461,-0.14754 12.397195,-0.137806 4.104314,0.02207 8.208602,0.04712 12.312972,0.05581 2.530491,0.01021 5.060994,0.02286 7.591454,0.0396 0.78878,-2.1e-5 1.57751,0.0077 2.36628,0.01069 0,0 0.47889,-0.348568 0.47889,-0.348568 v 0 c -0.80338,0.01656 -1.60678,0.02439 -2.41036,0.02199 -2.5668,0.01669 -5.133648,0.02937 -7.700474,0.0396 -4.15558,0.0088 -8.311079,0.03384 -12.466603,0.05581 -4.006223,0.0094 -8.013991,0.02426 -12.017849,-0.137808 0,0 -0.551505,0.400693 -0.551505,0.400693 z" />
    <path
       style="fill:#000000;stroke:#000000;stroke-width:0.248"
       id="path875"
       d="m 71.608686,95.360261 c 3.766246,-0.114512 7.534892,-0.10644 11.302463,-0.101278 3.72745,-0.0021 7.454762,0.0307 11.182194,0.03683 2.696474,0.01021 5.392965,0.01302 8.089457,0.01699 1.83901,0.0026 3.67783,0.01423 5.5167,-0.0141 0.47624,-0.0069 0.95244,-0.01582 1.42871,-0.02064 0,0 0.5333,-0.389105 0.5333,-0.389105 v 0 c -0.49081,0.01461 -0.98156,0.03051 -1.47213,0.05188 -1.87014,0.06801 -3.74085,0.104494 -5.61242,0.0856 -2.712076,0.004 -5.424153,0.0068 -8.136217,0.01699 -3.761226,0.0062 -7.522339,0.03896 -11.283584,0.03683 -3.674605,0.005 -7.350512,0.0168 -11.023672,-0.101275 0,0 -0.524801,0.381289 -0.524801,0.381289 z" />
    <path
       style="fill:#00ffff;stroke:#000000;stroke-width:0.248"
       id="path877"
       d="m 69.751536,63.284824 c 0.222353,-0.0051 0.444648,-0.01429 0.667057,-0.01543 1.757595,-0.0089 3.515582,0.05375 5.27173,0.115557 0.0685,0.0024 4.24919,0.161737 4.373182,0.166463 4.74387,0.114419 9.489183,0.14877 14.234046,0.198278 0.59989,0.0084 1.199787,0.01625 1.799669,0.02508 3.97565,0.05865 -0.747633,-0.0068 2.921278,0.04175 0.752345,0.01 1.504792,0.01408 2.257042,0.02955 0.33275,0.0069 0.66536,0.01955 0.99804,0.02934 0.87992,0.03276 1.75917,0.07927 2.63827,0.12886 0,0 0.46273,-0.332849 0.46273,-0.332849 v 0 c -0.89021,-0.03463 -1.78024,-0.07337 -2.67049,-0.107063 -0.33597,-0.0079 -0.67187,-0.02013 -1.00792,-0.02358 -0.76786,-0.0079 -1.53581,0.0039 -2.303715,0.0044 -1.606733,0.0011 -3.213465,0.0011 -4.820195,0.0051 -4.747988,0.0049 -9.497034,-0.01812 -14.242426,-0.190923 -1.808226,-0.0616 -2.555766,-0.08176 -4.374284,-0.16545 -1.685783,-0.07758 -3.369554,-0.186219 -5.054722,-0.274246 -0.203227,-0.01061 -0.406617,-0.01783 -0.609926,-0.02673 0,0 -0.539366,0.391871 -0.539366,0.391871 z" />
  </g>
</svg>
