<?xml version="1.0" encoding="UTF-8" standalone="no"?>
<svg
   xmlns:dc="http://purl.org/dc/elements/1.1/"
   xmlns:cc="http://creativecommons.org/ns#"
   xmlns:rdf="http://www.w3.org/1999/02/22-rdf-syntax-ns#"
   xmlns:svg="http://www.w3.org/2000/svg"
   xmlns="http://www.w3.org/2000/svg"
   xmlns:sodipodi="http://sodipodi.sourceforge.net/DTD/sodipodi-0.dtd"
   xmlns:inkscape="http://www.inkscape.org/namespaces/inkscape"
   width="146.27678mm"
   height="105.96097mm"
   viewBox="0 0 146.27678 105.96097"
   version="1.1"
   id="svg8"
   inkscape:version="1.0.2 (e86c870879, 2021-01-15, custom)"
   sodipodi:docname="importInstrument.svg">
  <defs
     id="defs2" />
  <sodipodi:namedview
     id="base"
     pagecolor="#ffffff"
     bordercolor="#666666"
     borderopacity="1.0"
     inkscape:pageopacity="0.0"
     inkscape:pageshadow="2"
     inkscape:zoom="0.98994949"
     inkscape:cx="14.011398"
     inkscape:cy="153.98561"
     inkscape:document-units="mm"
     inkscape:current-layer="layer1"
     inkscape:document-rotation="0"
     showgrid="false"
     inkscape:window-width="1920"
     inkscape:window-height="1017"
     inkscape:window-x="-8"
     inkscape:window-y="-8"
     inkscape:window-maximized="1" />
  <metadata
     id="metadata5">
    <rdf:RDF>
      <cc:Work
         rdf:about="">
        <dc:format>image/svg+xml</dc:format>
        <dc:type
           rdf:resource="http://purl.org/dc/dcmitype/StillImage" />
        <dc:title></dc:title>
      </cc:Work>
    </rdf:RDF>
  </metadata>
  <g
     inkscape:label="Layer 1"
     inkscape:groupmode="layer"
     id="layer1"
     transform="translate(-35.529762,-28.976536)">
    <rect
       style="fill:#808080;stroke-width:0.275266"
       id="rect10"
       width="146.27678"
       height="105.96097"
       x="35.718758"
       y="28.976536" />
    <path
       style="fill:none;stroke:#000000;stroke-width:0.30425px;stroke-linecap:butt;stroke-linejoin:miter;stroke-opacity:1"
       d="m 100.90961,54.675448 c 1.66491,-1.583193 2.96916,-3.676752 4.60227,-5.207994 1.15827,-1.086018 5.51059,-2.813483 6.98276,-3.273595 2.05521,-0.642341 6.73698,-0.825634 8.25233,0.595199 1.74562,1.636738 2.95253,9.043977 2.38048,11.457586 -0.43761,1.846484 -1.51411,3.482816 -2.22178,5.207994 -2.31717,5.64884 -5.86279,12.193078 -10.47413,16.516777 -2.01789,1.892035 -4.31336,3.378047 -6.18926,5.356795 -0.45006,0.474746 -1.13128,0.720394 -1.58698,1.190398 -1.07345,1.107141 -2.702598,2.787916 -3.332668,4.166393 -0.31296,0.684691 -0.17203,1.252849 -0.3174,1.9344 -0.0758,0.355277 -1.39554,0.853988 -1.7457,1.041597 -2.51017,1.344915 -3.53051,3.751451 -5.71316,5.505593 -2.97952,2.394579 -6.30508,4.275009 -9.04582,6.844799 -0.39279,0.36828 -1.11946,0.60322 -1.4283,0.8928"
       id="path15" />
    <path
       style="fill:none;stroke:#000000;stroke-width:0.30425px;stroke-linecap:butt;stroke-linejoin:miter;stroke-opacity:1"
       d="m 100.90961,54.675448 c -3.837418,3.532629 -6.395268,8.132235 -9.680628,12.052783 -2.72102,3.247099 -5.48468,6.523448 -7.93494,9.969588 -1.10382,1.552454 -2.11601,3.129785 -3.332676,4.612795 -2.25414,2.747593 -4.639052,5.200546 -6.982752,7.88639 -2.024069,2.319553 -4.127532,4.61407 -6.347953,6.69599 -0.85917,0.805578 -2.347481,1.287779 -3.332676,1.934397 -0.465917,0.305801 -0.719167,0.820418 -1.269591,1.041601 -2.39038,0.960545 -4.520393,2.534408 -6.98275,3.422398 -1.683512,0.60711 -10.031209,1.66791 -10.474125,2.0832 -0.352829,0.33082 3.272897,3.7538 3.650073,4.16639 1.283007,1.40348 2.291125,3.0955 3.808774,4.3152 2.77023,2.22637 5.686233,4.39663 8.411039,6.69598 0.811739,0.68501 1.605994,1.35703 2.380482,2.08321 0.08364,0.0784 0.04041,0.2976 0.158699,0.2976 0.790696,0 -0.341217,-1.04462 -0.793494,-2.232 -0.295203,-0.77502 -0.36485,-2.30104 -0.634796,-2.976 -0.437298,-1.0934 -0.952192,-2.20729 -0.952192,-3.4224 0,-1.79884 -0.376481,-4.0382 0,-5.80318 0.445791,-2.08993 1.94374,-3.92415 3.173978,-5.6544 0.255686,-0.35961 0.366731,-1.00408 0.634793,-1.3392 0.378784,-0.47354 1.101908,-1.028965 1.428291,-1.488 0.05869,-0.08254 0,-0.198398 0,-0.297599 0.05289,-0.148798 0.06591,-0.315894 0.158697,-0.4464 0.824145,-1.159102 2.46073,-1.898455 3.332679,-3.124795 1.199029,-1.686358 2.756116,-2.733002 4.284869,-4.166394 0.971376,-0.910788 1.738449,-2.076409 2.697878,-2.975997 0.550039,-0.51573 1.256124,-0.89782 1.745688,-1.487997 0.859902,-1.036624 0.45836,-0.793454 1.269591,-1.934398 0.494852,-0.69598 1.260204,-1.251594 1.745684,-1.934399 2.2983,-3.232408 4.78856,-6.583403 7.14145,-9.671985 0.85929,-1.127971 2.17067,-1.993473 3.01528,-3.124796 0.78061,-1.045598 1.42354,-2.225777 2.22178,-3.273596 0.93037,-1.221274 2.17504,-2.251605 3.17399,-3.422398 0.71546,-0.838554 1.22161,-1.645113 1.74568,-2.529595 0.91758,-1.548612 0.0202,0.126714 0.9522,-0.8928 0.43596,-0.476903 0.686488,-1.139395 1.110878,-1.636797 0.62838,-0.736463 1.29861,-1.247998 2.06309,-1.7856 0.56219,-0.395338 0.96736,-1.266979 1.42828,-1.785596 0.46141,-0.519135 1.05411,-0.625229 1.587,-1.041599 1.39765,-1.092064 6.3148,-4.205632 8.09365,-4.761593 0.60761,-0.189903 1.46239,-0.1488 2.06308,-0.1488 0.12716,0 0.85087,-0.095 0.95219,0 0.37028,0.347179 1.03906,0.911066 1.58699,1.339198 1.06149,0.8294 1.42042,0.863247 1.74569,2.083197 0.31484,1.180838 0,2.784354 0,4.017594 0,1.215994 0.21429,2.663215 0,3.868798 -0.79309,4.461706 -4.24467,8.115212 -7.30015,11.457584 -1.86919,2.044696 -2.89328,4.647206 -4.91967,6.54719 -2.18872,2.052202 -4.93713,3.736373 -7.14145,5.803194 -0.705078,0.661098 -1.225388,1.537488 -1.904378,2.231996 -0.87962,0.899729 -1.74111,1.594242 -2.53919,2.529598 -0.81301,0.952885 -2.35846,1.707501 -3.33267,2.529597 -1.2148,1.025124 -2.20313,2.214509 -3.33268,3.273594 -0.99055,0.928765 -1.51248,2.405075 -2.38048,3.422398 -1.15484,1.353505 -2.03178,2.783166 -3.01528,4.166396 -0.40725,0.57278 -1.26191,1.0272 -1.58698,1.6368 -0.0479,0.0898 0.0734,0.37761 0,0.4464 -0.14262,0.13372 -1.38601,1.25009 -1.4283,1.488 -0.087,0.48925 0,0.992 0,1.488"
       id="path19" />
    <path
       style="fill:none;stroke:#000000;stroke-width:0.30425px;stroke-linecap:butt;stroke-linejoin:miter;stroke-opacity:1"
       d="m 82.024452,102.44019 c 0.0904,0.94268 -0.0582,1.54258 -0.7935,2.232 -1.10212,1.03338 -3.706174,0.5952 -5.07836,0.5952 -1.681233,0 -4.578726,0.60991 -6.030556,-0.2976 -0.239386,-0.14964 -0.855251,-0.73373 -0.952194,-0.8928 -0.537958,-0.88271 -0.632161,-7.745008 -0.317397,-8.630395 0.366043,-1.029631 0.94765,-1.777083 1.428287,-2.678396"
       id="path23" />
    <path
       style="fill:none;stroke:#000000;stroke-width:0.30425px;stroke-linecap:butt;stroke-linejoin:miter;stroke-opacity:1"
       d="m 81.072252,106.90419 c -0.1058,0.3968 -0.12231,0.82456 -0.31739,1.1904 -0.17901,0.33568 -4.12682,2.26934 -4.60227,2.38079 -0.90454,0.21203 -3.799148,0.5982 -4.760966,0.2976 -0.135587,-0.0424 -0.745558,-0.56711 -0.793493,-0.5952 -2.290964,-1.34254 -1.996238,-1.95784 -3.015279,-3.86879 -0.591685,-1.10956 -1.220618,-1.80769 -1.428291,-2.976 -0.265065,-1.49119 -0.229029,-3.778344 0.317397,-5.059199 0.377099,-0.883938 1.428291,-2.565858 1.428291,-3.273593"
       id="path27" />
    <path
       style="fill:none;stroke:#000000;stroke-width:0.30425px;stroke-linecap:butt;stroke-linejoin:miter;stroke-opacity:1"
       d="m 89.007202,68.067431 c 1.18616,1.521371 3.21457,2.186142 4.76096,3.273596 0.58272,0.409775 1.1397,1.249002 1.90439,1.487998 1.32296,0.41348 2.49506,0.816125 3.80877,1.487997 1.493948,0.76405 3.546268,1.093071 4.760968,2.231999 0.89568,0.839816 6.82405,4.003203 6.82405,4.315193 0,1.275568 -1.63372,2.468431 -2.22178,3.571195 -0.0292,0.05479 -1.57356,0.04035 -1.74569,0 -0.27878,-0.06535 -0.70236,-0.454645 -0.9522,-0.5952 -0.83886,-0.471928 -1.94771,-0.811664 -2.69788,-1.339196 -0.94345,-0.663456 -1.83494,-1.692589 -2.69788,-2.231999 -1.210808,-0.756856 -2.626958,-1.463059 -3.967468,-1.934398 -1.04039,-0.365812 -2.37965,-1.819511 -3.49137,-2.380797 -2.48241,-1.253303 -3.58161,-1.398126 -5.23706,-3.571195 -0.60479,-0.793881 -0.95721,-0.90689 -1.2696,-1.785596 -0.20205,-0.568361 0.21524,-1.541012 0.47611,-1.785599 0.47799,-0.448176 0.96481,0.232202 1.74568,-0.743998 z"
       id="path29" />
    <path
       style="fill:none;stroke:#000000;stroke-width:0.30425px;stroke-linecap:butt;stroke-linejoin:miter;stroke-opacity:1"
       d="m 86.785412,70.597028 c -1.76131,-0.509741 -3.00382,0.690309 -3.33267,2.231997 -0.0626,0.293417 0.11254,0.489671 -0.1587,0.743998 -0.0656,0.06152 -1.18008,1.614661 -0.9522,1.785599 0.98954,0.742252 2.31539,1.149707 3.33268,1.785596 0.79444,0.496592 2.13479,1.852835 2.85658,2.529598 1.76105,1.651199 5.01286,2.984653 7.14145,4.315194 0.42537,0.265896 0.77233,0.706304 1.2696,0.892799 1.4591,0.547239 3.153108,0.821549 4.602248,1.636799 0.689,0.387611 3.27932,2.314954 3.65008,2.083198 1.34602,-0.841376 2.22178,-3.605818 2.22178,-4.910395"
       id="path33" />
    <path
       style="fill:none;stroke:#000000;stroke-width:0.30425px;stroke-linecap:butt;stroke-linejoin:miter;stroke-opacity:1"
       d="m 82.183142,75.358622 c -0.48554,0.07588 -3.826002,4.894233 -3.808768,4.910392 0.644208,0.604024 3.620628,1.07893 4.602268,1.488001 1.06481,0.443726 1.95159,1.425271 2.85658,1.934396 0.11405,0.06416 0.95174,0.178221 1.11089,0.297599 3.01797,2.263772 6.55683,3.70176 9.68064,5.654393 1.26681,0.791864 3.16765,0.886878 4.284858,1.934398 0.1433,0.134356 1.64811,0.864142 1.90439,0.743998 1.08957,-0.510804 2.38048,-3.00719 2.38048,-4.017596"
       id="path35" />
    <path
       style="fill:none;stroke:#000000;stroke-width:0.30425px;stroke-linecap:butt;stroke-linejoin:miter;stroke-opacity:1"
       d="m 106.14667,49.021055 c 0.0528,-0.396799 0.0361,-0.807375 0.15871,-1.190399 0.4587,-1.433667 3.83285,-3.813722 4.91966,-5.059193 0.87289,-1.000323 1.73328,-2.066912 2.53918,-3.124796 0.40876,-0.536566 0.9572,-1.357965 1.1109,-1.934398 0.0528,-0.1984 -0.0594,-0.595199 0.15869,-0.595199 0.53,0 1.56669,1.617761 1.90439,1.934398 0.24596,0.230614 0.63859,-0.01069 0.47609,0.446399 -0.35249,0.991531 -2.19377,1.435468 -2.69788,2.380797 -0.47745,0.895353 -1.75244,2.23833 -2.38048,2.827196 -0.60886,0.57088 -0.60768,1.46258 -1.11089,1.934398"
       id="path41" />
    <path
       style="fill:none;stroke:#000000;stroke-width:0.30425px;stroke-linecap:butt;stroke-linejoin:miter;stroke-opacity:1"
       d="m 114.71641,37.11707 c -0.0189,-1.169758 0.38825,-4.82802 1.2696,-5.654393 0.0761,-0.07136 0.73125,0.954058 0.79349,1.0416 0.37817,0.531872 0.80504,0.907232 1.26959,1.487997 0.54987,0.687421 0.71709,1.862764 1.26959,2.380797 0.40204,0.376957 1.29514,0.940706 1.58699,1.487998 0.11828,0.221818 0.0641,0.503404 0,0.744 -0.1621,0.607976 -3.21214,1.190398 -3.80878,1.190398"
       id="path43" />
    <path
       style="fill:none;stroke:#000000;stroke-width:0.30425px;stroke-linecap:butt;stroke-linejoin:miter;stroke-opacity:1"
       d="m 100.11612,74.614623 c -0.239058,-3.75587 3.78464,-5.577611 5.55446,-8.48159 2.71176,-4.449577 4.20736,-8.191945 9.99803,-9.820789 0.63721,-0.179237 1.49949,-0.523344 2.22179,-0.297599 1.26074,0.394037 1.08416,1.710419 1.42828,2.678396 1.75556,4.938147 0.88783,7.195371 -3.01528,11.159989 -1.71979,1.746893 -3.52041,2.85443 -5.23706,4.463992 -1.38019,1.294104 -2.24219,2.846334 -3.65008,4.166395"
       id="path45" />
    <path
       style="fill:none;stroke:#000000;stroke-width:0.30425px;stroke-linecap:butt;stroke-linejoin:miter;stroke-opacity:1"
       d="m 100.11612,74.614623 c 0.84639,-0.148801 1.76169,-0.09926 2.53918,-0.446399 0.6999,-0.312501 1.27467,-1.940743 1.74569,-2.529598 0.49463,-0.618366 1.25021,-1.023429 1.74568,-1.487997 0.36159,-0.339036 0.73863,-1.080784 1.1109,-1.487998 1.57226,-1.719886 2.45525,-2.411545 3.80877,-4.315196 0.6467,-0.909525 2.03683,-1.302259 2.69788,-2.231997 0.17411,-0.244872 1.36312,-1.846706 1.7457,-1.487997 0.54252,0.508692 0.66532,1.068357 0.95219,1.785596 1.37356,3.434371 -1.578,7.408166 -4.28487,9.523188 -0.74683,0.583531 -0.48518,0.0085 -1.1109,0.5952 -0.23879,0.223897 -0.61637,0.789699 -0.9522,1.041598 -1.06883,0.801733 -2.24322,1.508104 -3.17398,2.380796 -0.19327,0.181224 -1.90796,1.63512 -1.90438,1.636799 0.7644,0.35836 1.587,0.5952 2.38048,0.892799"
       id="path47" />
    <path
       style="fill:none;stroke:#000000;stroke-width:0.30425px;stroke-linecap:butt;stroke-linejoin:miter;stroke-opacity:1"
       d="m 88.689802,86.072208 c -1.66106,2.041941 -4.04171,3.337847 -6.03056,5.059192 -2.66212,2.304067 -4.573044,5.423397 -5.713155,8.630391 -0.07935,0.223199 0.07935,0.520799 0,0.743999 -0.259269,0.72929 -0.738856,2.13443 0,2.8272 0.455972,0.42753 1.534753,0.57887 2.063084,0.744 4.973691,1.55449 7.628091,-0.8013 11.426321,-3.5712 4.11118,-2.998131 8.68959,-5.21107 9.998018,-10.118388"
       id="path49" />
    <path
       style="fill:none;stroke:#000000;stroke-width:0.30425px;stroke-linecap:butt;stroke-linejoin:miter;stroke-opacity:1"
       d="m 88.689802,86.072208 c 2.2491,2.924753 0.57877,2.550035 -0.95219,4.463994 -0.81461,1.018389 -1.42794,2.082866 -2.38049,2.975995 -1.27332,1.193901 -3.15263,1.560515 -4.28487,2.975998 -0.62219,0.77784 -1.548515,3.396843 -0.31739,4.166395 0.94391,0.59003 3.3452,0.50357 4.44356,0.2976 0.89275,-0.16741 2.65807,-1.897073 3.33268,-2.529598 0.65837,-0.617302 1.83565,-0.828351 2.53918,-1.487998 0.84776,-0.794886 5.55447,-6.622323 5.55447,-7.291191"
       id="path51" />
    <path
       style="fill:none;stroke:#000000;stroke-width:0.30425px;stroke-linecap:butt;stroke-linejoin:miter;stroke-opacity:1"
       d="m 77.104784,75.805022 c 0.864608,0.610347 1.672709,2.083195 2.856582,2.083195"
       id="path53" />
    <path
       style="fill:none;stroke:#000000;stroke-width:0.30425px;stroke-linecap:butt;stroke-linejoin:miter;stroke-opacity:1"
       d="m 80.754862,71.043428 c 0.83206,0.617688 2.42398,0.635981 3.17397,1.339196"
       id="path55" />
    <path
       style="fill:none;stroke:#000000;stroke-width:0.30425px;stroke-linecap:butt;stroke-linejoin:miter;stroke-opacity:1"
       d="m 84.087532,67.174631 c 0.81238,0.798949 2.25964,1.22589 3.01528,1.934397 0.38147,0.357673 -0.20036,0.994222 -0.3174,1.488"
       id="path57" />
    <path
       style="fill:none;stroke:#000000;stroke-width:0.30425px;stroke-linecap:butt;stroke-linejoin:miter;stroke-opacity:1"
       d="m 84.087532,67.174631 c 1.10602,-2.859553 0.0289,-0.02368 0,0 -0.61709,0.506276 -1.09509,0.282786 -1.58698,0.743999 -0.18703,0.175362 -0.6877,0.744001 -0.4761,0.5952 0.66913,-0.470546 1.37539,-0.892799 2.06308,-1.339199"
       id="path59" />
    <path
       style="fill:none;stroke:#000000;stroke-width:0.30425px;stroke-linecap:butt;stroke-linejoin:miter;stroke-opacity:1"
       d="m 80.754862,71.043428 c 0.26449,-0.4464 0.54992,-0.882449 0.79349,-1.339199 0.15148,-0.284065 -0.68638,0.293902 -0.79349,0.595198 -0.0836,0.235274 0.18703,0.568638 0,0.744001 -0.22753,0.213338 -0.6428,0.06592 -0.952197,0.148798 -0.336724,0.0902 -0.578393,0.643157 -0.793494,0.743999 -0.2116,0.0992 -0.511907,0.72146 -0.317397,0.5952 0.71335,-0.463051 1.375388,-0.992 2.063088,-1.487997"
       id="path61" />
    <path
       style="fill:none;stroke:#000000;stroke-width:0.30425px;stroke-linecap:butt;stroke-linejoin:miter;stroke-opacity:1"
       d="m 77.104784,75.805022 c 0.370296,-0.595201 0.782232,-1.169281 1.110893,-1.785599 0.09776,-0.183326 -0.325239,0.156155 -0.793494,0.5952 -0.507787,0.476111 -0.902914,0.858142 -1.58699,1.339196 -0.565084,0.397377 -1.984345,1.076813 -1.428288,0.892801 0.917103,-0.303495 1.798585,-0.694399 2.697879,-1.041598"
       id="path63" />
    <path
       style="fill:#ffff00;stroke-width:0.15367"
       d="m 67.375798,95.711333 c -1.585672,1.115061 -3.412576,1.923649 -4.928932,3.133406 -3.077731,1.461531 -5.909243,3.560571 -9.397669,4.092401 -2.665921,0.59984 -5.458867,0.86112 -8.062956,1.59872 0.7334,1.44996 2.24109,2.47119 3.270304,3.75538 1.71203,2.01942 3.403814,4.07498 5.598516,5.66672 2.837339,2.21372 5.592538,4.54512 8.429047,6.74245 -0.596731,-1.91075 -0.907091,-3.92558 -1.625735,-5.81918 -0.483342,-2.39926 -0.476841,-4.88123 -0.295081,-7.30805 0.524667,-2.68634 2.633639,-4.70528 3.834809,-7.10432 0.624778,-0.752371 1.40149,-1.428059 1.658278,-2.369173 0.590709,-0.703076 1.423641,-1.473008 1.519419,-2.388354 z"
       id="path65" />
    <path
       style="fill:#ffff00;stroke-width:0.15367"
       d="m 67.840426,96.868019 c -1.77336,1.417645 -1.594604,3.858541 -1.493379,5.839811 0.320055,1.98973 1.567437,3.72307 2.505394,5.49746 0.757134,1.05354 1.866165,2.06962 3.194745,2.40114 2.460727,0.22637 4.852859,-0.54233 6.932817,-1.72734 0.97626,-0.3845 1.948399,-1.10514 1.767439,-2.2185 -0.10682,-0.35364 0.30931,-1.16671 -0.12928,-1.33365 -2.918269,0.31581 -5.888623,0.24324 -8.827932,0.26447 -1.739011,0.15467 -3.264608,-1.35258 -3.125348,-2.96313 -0.167703,-2.10056 -0.385012,-4.222047 -0.106904,-6.322619 -0.239187,0.187451 -0.478371,0.374905 -0.717556,0.562358 z"
       id="path67" />
    <path
       style="fill:#ffff00;stroke-width:0.15367"
       d="m 80.572292,81.367553 c -1.136672,0.564774 -1.745503,1.803957 -2.643719,2.648986 -2.507298,2.95662 -5.30886,5.715862 -7.594529,8.824876 0.0075,0.281875 -0.36553,0.930698 0.184424,0.448432 2.678869,-1.920878 4.58567,-4.561692 7.030485,-6.707036 1.158318,-1.292535 1.990296,-2.815641 3.253329,-4.037645 0.19252,-0.301043 1.05439,-1.067954 0.20984,-1.108733 -0.14504,-0.02601 -0.28992,-0.07723 -0.43983,-0.06888 z"
       id="path69" />
    <path
       style="fill:#ffff00;stroke-width:0.15367"
       d="m 88.751172,86.537475 c -3.0985,2.849898 -7.01682,5.026113 -9.244434,8.632838 -0.950702,1.584054 -1.969702,3.250046 -2.322608,5.041047 -0.07859,0.99781 -0.968167,2.46965 0.281443,3.14195 1.257691,0.37893 2.628999,1.01985 3.959719,0.75621 0.43142,-0.41882 0.18863,-1.42058 0.76529,-1.65424 0.14909,0.19284 0.084,0.82041 0.47021,0.40136 0.46041,-0.47012 1.16155,-0.91408 1.40504,-1.49004 -1.25149,-0.31753 -3.00303,0.19233 -3.88099,-0.94918 -0.454879,-1.801246 0.01,-3.971136 1.78009,-5.024032 1.74518,-1.072717 3.62816,-2.081772 4.70774,-3.835182 0.75427,-1.197717 2.01015,-2.047763 2.75699,-3.226995 0.17361,-0.649447 -0.3779,-1.262796 -0.67849,-1.793736 z"
       id="path71" />
    <path
       style="fill:#ffff00;stroke-width:0.15367"
       d="m 95.645582,89.353338 c -2.69727,1.625947 -4.92852,3.877408 -6.87365,6.246394 -1.01511,1.755163 -2.49209,3.303693 -3.44642,5.053678 1.6939,-0.897673 2.8463,-2.542034 4.64255,-3.338992 2.12442,-1.354506 3.34776,-3.58094 4.91001,-5.436312 0.41069,-0.711877 1.25261,-1.367473 1.32698,-2.179216 -0.15187,-0.143702 -0.3495,-0.302251 -0.55947,-0.345552 z"
       id="path73" />
    <path
       style="fill:#ffff00;stroke-width:0.15367"
       d="m 96.773832,90.095012 c -1.76965,2.440691 -3.51457,4.955926 -5.70572,7.092112 -1.4906,0.900743 -2.92942,1.874318 -4.20831,3.037606 -0.58908,0.57957 -1.43739,0.82548 -2.13717,1.17588 -0.68517,1.00537 -1.87117,1.73955 -2.17869,2.95739 2.55076,-0.27579 4.32556,-2.25405 6.3477,-3.53154 2.38345,-1.591758 4.32165,-3.645472 6.16997,-5.749269 1.03052,-1.104886 2.42741,-1.795849 3.78522,-2.4799 -0.15583,-0.657735 0.53851,-1.778211 -0.5133,-1.964041 -0.50421,-0.206795 -1.01454,-0.454979 -1.5597,-0.538238 z"
       id="path75" />
    <path
       style="fill:#ffff00;stroke-width:0.15367"
       d="m 98.002812,86.933016 c -0.69091,0.677909 -1.38889,1.351876 -2.01442,2.084651 0.97714,0.554146 2.08432,1.11514 3.16252,1.317981 0.79047,-1.1916 1.756048,-2.267455 2.692908,-3.358167 -0.81739,-0.520538 -1.73878,-0.864019 -2.657278,-1.191561 -0.39457,0.382366 -0.78915,0.76473 -1.18373,1.147096 z"
       id="path77" />
    <path
       style="fill:#ffff00;stroke-width:0.15367"
       d="m 85.396482,77.294451 c -1.13957,1.231325 -2.03104,2.649695 -3.04069,3.975454 1.76003,0.639368 3.02925,2.057408 4.80089,2.681171 2.73087,1.604583 5.4241,3.334047 8.32617,4.636177 1.12904,-0.859256 2.03603,-1.945224 3.04348,-2.923977 -2.34201,-0.670646 -4.14501,-2.318407 -6.31673,-3.324651 -2.55307,-1.205021 -4.52958,-3.146962 -6.61412,-4.925891 -0.0633,-0.02947 -0.12317,-0.117991 -0.199,-0.118283 z"
       id="path79" />
    <path
       style="fill:#ffff00;stroke-width:0.15367"
       d="m 88.293362,73.300978 c -0.88809,1.132496 -1.7294,2.299297 -2.59405,3.44855 2.26611,2.111472 4.60413,4.20539 7.47542,5.584833 1.96033,0.914763 3.55837,2.465052 5.73937,2.93977 0.94178,-1.259912 2.133308,-2.324206 3.344758,-3.351773 -1.63389,-1.849406 -4.102848,-2.646626 -6.249388,-3.806603 -1.81505,-1.29946 -3.75398,-2.422811 -5.75098,-3.457271 -0.72189,-0.367818 -1.26325,-0.980858 -1.96513,-1.357506 z"
       id="path81" />
    <path
       style="fill:#ffff00;stroke-width:0.15367"
       d="m 101.25925,83.487079 c -0.51129,0.625216 -1.469218,1.11936 -1.644958,1.903594 0.788648,0.412975 1.707138,0.682761 2.485878,1.120066 1.3051,-0.693332 2.31475,-1.785532 3.40799,-2.733906 -0.97045,-0.486055 -2.04842,-0.857405 -2.83241,-1.608608 -0.47217,0.439618 -0.94433,0.879236 -1.4165,1.318854 z"
       id="path83" />
    <path
       style="fill:#ffff00;stroke-width:0.15367"
       d="m 107.08274,78.847256 c -1.37739,0.969434 -2.65133,2.091203 -4.02356,3.079169 0.84366,0.606871 1.85906,1.176715 2.8544,1.426675 1.28547,-0.970895 2.61155,-1.972952 3.71858,-3.098637 -0.75634,-0.562464 -1.60607,-1.177224 -2.54942,-1.407207 z"
       id="path85" />
    <path
       style="fill:#ffff00;stroke-width:0.15367"
       d="m 91.423012,70.269182 c -1.01895,0.728328 -1.83151,1.680088 -2.74004,2.522911 1.89002,1.962428 4.74158,2.685631 6.8225,4.434931 2.1543,1.457055 4.862018,2.097822 6.749358,3.929537 0.68584,0.811018 1.34013,-0.409141 1.93817,-0.698954 0.72047,-0.666287 1.77679,-1.179029 2.32469,-1.932652 -0.43344,-0.470299 -1.6855,-0.434191 -1.54824,-1.222658 -1.25964,-0.810015 -2.49559,-1.704455 -3.98669,-2.143647 -1.961868,-0.907379 -4.065038,-1.539406 -5.999558,-2.481063 -1.15463,-0.831371 -2.23621,-1.822178 -3.56019,-2.408405 z"
       id="path87" />
    <path
       style="fill:#ffff00;stroke-width:0.15367"
       d="m 110.27129,80.641864 c -1.34189,0.921989 -2.71659,1.93661 -3.8004,3.09428 0.19067,0.287718 0.70462,0.514702 0.69834,0.02121 0.52783,-0.314506 0.24922,0.665471 0.78171,0.523708 1.17146,-0.006 1.58203,-1.37117 2.26196,-2.06611 0.28357,-0.425339 0.92745,-1.346904 0.0584,-1.573092 z"
       id="path89" />
    <path
       style="fill:#ffff00;stroke-width:0.15367"
       d="m 106.10235,84.163362 c -1.31811,0.698838 -2.24782,1.948792 -3.5171,2.749892 0.84566,0.431327 1.61078,1.227344 2.57111,1.368551 1.06181,-0.901791 1.62479,-2.307207 1.87493,-3.605779 -0.31691,-0.111834 -0.59282,-0.421732 -0.92894,-0.512664 z"
       id="path91" />
    <path
       style="fill:#ffff00;stroke-width:0.15367"
       d="m 102.30133,87.324486 c -0.95208,0.960544 -2.01117,1.983593 -2.540108,3.203267 0.23187,0.438143 0.631448,-0.649511 0.806808,-0.0052 0.0735,0.859476 1.19181,1.33447 1.98808,1.481023 1.27657,-0.366749 1.64305,-1.841513 2.18521,-2.848414 0.26856,-0.65782 -0.96672,-0.671451 -1.26711,-1.105245 -0.39138,-0.239154 -0.77662,-0.501809 -1.17288,-0.725399 z"
       id="path93" />
    <path
       style="fill:#ffff00;stroke-width:0.15367"
       d="m 87.275462,71.950734 c -1.09362,1.319163 -2.27525,2.646425 -3.11447,4.10827 0.36364,0.356055 1.13701,0.759828 1.38185,0.03728 0.88351,-1.070835 1.66917,-2.208316 2.4979,-3.316109 -0.24465,-0.254098 -0.4224,-0.700559 -0.76528,-0.829444 z"
       id="path95" />
    <path
       style="fill:#ffff00;stroke-width:0.15367"
       d="m 85.920932,70.749294 c -0.96618,0.02923 -1.90141,0.791212 -1.96327,1.66557 -0.41933,0.776226 -0.55139,1.670174 -1.15336,2.380797 -0.535,0.620851 0.99981,1.443413 1.17443,0.56875 0.85873,-1.377239 2.1895,-2.515073 2.85348,-3.979811 -0.0129,-0.456862 -0.44748,-0.724802 -0.91128,-0.635306 z"
       id="path97" />
    <path
       style="fill:#ffff00;stroke-width:0.15367"
       d="m 81.873192,75.968621 c -1.08209,1.374787 -2.249528,2.796826 -3.120669,4.250675 0.50557,0.182209 1.352189,0.844916 1.640609,0.04215 0.98584,-1.322678 2.06426,-2.634977 2.88541,-4.035905 -0.41867,-0.230216 -1.12509,-0.95133 -1.40535,-0.256911 z"
       id="path99" />
    <path
       style="fill:#ffff00;stroke-width:0.15367"
       d="m 83.724572,76.553065 c -1.05521,1.367779 -2.06298,2.805004 -2.86464,4.311709 0.44915,0.318 1.13668,0.36984 1.33415,-0.248352 0.93642,-1.182209 1.79719,-2.41478 2.69066,-3.625386 -0.3811,-0.145531 -0.74561,-0.39306 -1.16017,-0.437971 z"
       id="path101" />
    <path
       style="fill:#ffff00;stroke-width:0.15367"
       d="m 69.415018,93.568848 c -0.833734,0.575456 -1.567105,1.366603 -1.537086,2.391841 -0.426128,0.714144 0.297546,0.119647 0.425262,-0.166818 0.393775,-0.688316 1.007645,-1.501877 1.111824,-2.225023 z"
       id="path103" />
    <path
       style="fill:#ffff00;stroke-width:0.15367"
       d="m 89.570082,69.165389 c -0.65382,0.724779 -1.43538,1.498843 -1.82566,2.383702 0.36451,1.088272 1.1055,0.528622 1.6361,-0.171447 0.32562,-0.596774 2.14062,-1.306462 0.99269,-1.791524 -0.25474,-0.143236 -0.48931,-0.413918 -0.80313,-0.420731 z"
       id="path105" />
    <path
       style="fill:#ffff00;stroke-width:0.15367"
       d="m 89.040672,68.546358 c -0.5834,0.269417 -1.73593,0.08532 -1.6183,0.991031 -10e-4,0.40623 -0.61311,1.231655 -0.053,1.441496 0.56929,-0.786967 1.52799,-1.500465 1.76056,-2.42061 -0.0259,-0.017 -0.0595,-0.01573 -0.0893,-0.0119 z"
       id="path107" />
    <path
       style="fill:#ffff00;stroke-width:0.15367"
       d="m 116.02009,45.949712 c -3.63781,-0.02141 -6.87202,1.782674 -9.92673,3.423849 -2.20004,1.936127 -3.78886,4.412718 -5.93518,6.410875 -3.616818,3.783384 -6.296248,8.240429 -9.644088,12.222786 -0.49748,0.445598 -0.68556,0.945204 0.11175,1.17415 0.63509,0.694681 1.02586,-0.477946 1.33684,-0.846006 1.7459,-2.924639 4.65114,-5.0459 6.3427,-8.005838 0.70731,-0.73561 1.39256,-1.475392 1.950558,-2.326451 1.18392,-1.258336 2.5778,-2.33507 3.63055,-3.700232 2.27594,-1.713969 4.75459,-3.20217 7.24759,-4.625855 1.44137,-0.854754 3.06417,-1.445805 4.79541,-1.359429 1.0755,-0.224459 1.64975,0.959155 2.47721,1.421906 0.83739,0.705598 1.94646,1.428285 1.73882,2.638066 0.19711,3.692363 -0.0945,7.41687 0.36901,11.090159 0.31229,0.107084 0.41304,-0.92515 0.65692,-1.145037 0.99314,-2.008407 2.03565,-4.111685 1.79377,-6.388497 -0.18376,-2.939667 -0.56807,-6.025095 -2.14631,-8.624323 -1.06487,-1.337241 -3.19916,-1.307265 -4.79878,-1.360123 z"
       id="path109" />
    <path
       style="fill:#ffff00;stroke-width:0.15367"
       d="m 117.37958,56.171562 c -3.96701,0.554393 -7.41666,3.085843 -9.26021,6.389587 -1.46286,2.389178 -2.78921,4.902004 -4.97124,6.807968 -1.40755,1.383258 -2.71045,3.011578 -2.87394,4.987701 1.21227,-0.04678 2.66724,-0.250058 3.13128,-1.489816 0.77029,-1.766597 2.63115,-2.737665 3.68862,-4.320523 1.54866,-1.59538 2.87921,-3.368652 4.45516,-4.936379 1.07447,-0.804229 2.11424,-1.636507 2.91826,-2.690604 0.37373,-0.49623 1.2284,-0.790866 1.54824,-0.07847 0.90478,1.561378 1.24031,3.484592 0.75599,5.216422 1.34118,-1.628134 2.18027,-3.577807 2.83333,-5.527679 -0.51955,-1.3819 -0.51798,-3.039815 -1.54017,-4.199236 -0.19573,-0.135449 -0.44761,-0.171253 -0.68532,-0.158971 z"
       id="path111" />
    <path
       style="fill:#ffff00;stroke-width:0.15367"
       d="m 119.81151,61.81956 c -0.67864,1.148423 -1.18195,2.449529 -1.99019,3.561335 -1.70485,2.716002 -3.77211,5.208665 -6.07586,7.496931 -0.2549,0.110747 -0.5847,0.976551 -0.0589,0.555385 3.00235,-2.503655 6.41727,-4.972978 7.89806,-8.601909 0.18927,-0.961355 0.5743,-2.084876 0.24517,-3.014647 z"
       id="path113" />
    <path
       style="fill:#ffff00;stroke-width:0.15367"
       d="m 118.60887,67.676518 c -2.22031,2.836729 -5.33118,4.909896 -7.93194,7.417301 -0.96321,1.117162 -2.00589,2.228569 -2.73063,3.488098 0.73157,0.407467 1.46308,1.018662 2.26703,1.215101 2.15116,-1.951142 3.85682,-4.322228 5.44776,-6.691765 1.01898,-1.768209 2.24151,-3.58415 2.94778,-5.428735 z"
       id="path115" />
    <path
       style="fill:#ffff00;stroke-width:0.15367"
       d="m 114.75515,38.483275 c -1.87798,3.476993 -5.24069,5.901397 -7.85559,8.843126 -0.20804,0.232068 -0.65905,0.892707 -0.31863,1.076764 1.54165,-0.772156 3.31177,-1.253699 4.66766,-2.297969 0.81331,-1.735215 2.39962,-3.004654 3.50129,-4.572687 0.66277,-0.803508 1.92685,-1.30091 2.35104,-2.178814 -0.80653,-0.376056 -1.10759,-1.339894 -1.86936,-1.809138 -0.1588,0.312906 -0.31761,0.625812 -0.47641,0.938718 z"
       id="path117" />
    <path
       style="fill:#b3b3b3;stroke-width:0.15367"
       d="m 116.00738,31.958171 c -0.7762,1.473767 -1.0385,3.231426 -0.88462,4.865056 1.03621,0.705706 1.78053,1.857932 2.77879,2.663574 0.9293,-0.277904 2.13312,-0.355302 2.8014,-1.070951 -0.13293,-1.104035 -1.56657,-1.604445 -2.01442,-2.604869 -0.60899,-1.433465 -1.63789,-2.730992 -2.68115,-3.85281 z"
       id="path119" />
    <path
       sodipodi:type="star"
       style="fill:#0000ff;stroke-width:0.264583"
       id="path36"
       sodipodi:sides="3"
       sodipodi:cx="144.00893"
       sodipodi:cy="68.035713"
       sodipodi:r1="33.709885"
       sodipodi:r2="16.85494"
       sodipodi:arg1="0.52888155"
       sodipodi:arg2="1.5760791"
       inkscape:flatsided="true"
       inkscape:rounded="0"
       inkscape:randomized="0"
       d="M 173.1131,85.044643 114.72668,84.736198 144.18701,34.326299 Z"
       inkscape:transform-center-x="0.0562643"
       inkscape:transform-center-y="-6.0444965"
       transform="matrix(0.63187818,0,0,0.72387079,41.402112,32.750148)" />
    <rect
       style="fill:#0000ff;stroke-width:0.178941"
       id="rect38"
       width="13.374755"
       height="34.200741"
       x="125.71082"
       y="91.84903" />
  </g>
</svg>
