<?xml version="1.0" encoding="UTF-8" standalone="no"?>
<svg
   xmlns:dc="http://purl.org/dc/elements/1.1/"
   xmlns:cc="http://creativecommons.org/ns#"
   xmlns:rdf="http://www.w3.org/1999/02/22-rdf-syntax-ns#"
   xmlns:svg="http://www.w3.org/2000/svg"
   xmlns="http://www.w3.org/2000/svg"
   xmlns:sodipodi="http://sodipodi.sourceforge.net/DTD/sodipodi-0.dtd"
   xmlns:inkscape="http://www.inkscape.org/namespaces/inkscape"
   width="146.27678mm"
   height="105.96097mm"
   viewBox="0 0 146.27678 105.96097"
   version="1.1"
   id="svg8"
   inkscape:version="1.0.2 (e86c870879, 2021-01-15, custom)"
   sodipodi:docname="saveProject.svg">
  <defs
     id="defs2">
    <rect
       x="60.653098"
       y="52.496254"
       width="51.315749"
       height="50.78121"
       id="rect181" />
    <rect
       x="64.394871"
       y="50.358098"
       width="56.928409"
       height="61.471991"
       id="rect171" />
    <rect
       x="52.635012"
       y="36.994622"
       width="66.550112"
       height="78.309972"
       id="rect161" />
  </defs>
  <sodipodi:namedview
     id="base"
     pagecolor="#ffffff"
     bordercolor="#666666"
     borderopacity="1.0"
     inkscape:pageopacity="0.0"
     inkscape:pageshadow="2"
     inkscape:zoom="1.979899"
     inkscape:cx="334.29667"
     inkscape:cy="180.29141"
     inkscape:document-units="mm"
     inkscape:current-layer="layer1"
     inkscape:document-rotation="0"
     showgrid="false"
     inkscape:window-width="1920"
     inkscape:window-height="1017"
     inkscape:window-x="-8"
     inkscape:window-y="-8"
     inkscape:window-maximized="1" />
  <metadata
     id="metadata5">
    <rdf:RDF>
      <cc:Work
         rdf:about="">
        <dc:format>image/svg+xml</dc:format>
        <dc:type
           rdf:resource="http://purl.org/dc/dcmitype/StillImage" />
        <dc:title />
      </cc:Work>
    </rdf:RDF>
  </metadata>
  <g
     inkscape:label="Layer 1"
     inkscape:groupmode="layer"
     id="layer1"
     transform="translate(-35.529762,-28.976536)">
    <path
       sodipodi:type="star"
       style="fill:#0000ff;stroke-width:0.264583"
       id="path36"
       sodipodi:sides="3"
       sodipodi:cx="144.00893"
       sodipodi:cy="68.035713"
       sodipodi:r1="33.709885"
       sodipodi:r2="16.85494"
       sodipodi:arg1="0.52888155"
       sodipodi:arg2="1.5760791"
       inkscape:flatsided="true"
       inkscape:rounded="0"
       inkscape:randomized="0"
       d="M 173.1131,85.044643 114.72668,84.736198 144.18701,34.326299 Z"
       inkscape:transform-center-x="0.0562643"
       inkscape:transform-center-y="6.044501"
       transform="matrix(0.63187818,0,0,-0.72387079,41.402112,150.89758)" />
    <rect
       style="fill:#0000ff;stroke-width:0.178941"
       id="rect38"
       width="13.374755"
       height="34.200741"
       x="125.71082"
       y="-91.798691"
       transform="scale(1,-1)" />
    <text
       xml:space="preserve"
       id="text159"
       style="fill:black;fill-opacity:1;line-height:1.25;stroke:none;font-family:sans-serif;font-style:normal;font-weight:normal;font-size:10.58333333px;white-space:pre;shape-inside:url(#rect161);" />
    <text
       xml:space="preserve"
       style="font-style:normal;font-weight:normal;font-size:10.5833px;line-height:1.25;font-family:sans-serif;fill:#000000;fill-opacity:1;stroke:none;stroke-width:0.264583"
       x="80.163773"
       y="51.159904"
       id="text167"><tspan
         sodipodi:role="line"
         id="tspan165"
         x="80.163773"
         y="51.159904"
         style="stroke-width:0.264583" /></text>
    <text
       xml:space="preserve"
       id="text169"
       style="fill:black;fill-opacity:1;line-height:1.25;stroke:none;font-family:sans-serif;font-style:normal;font-weight:normal;font-size:9.87777778px;white-space:pre;shape-inside:url(#rect171);" />
    <text
       xml:space="preserve"
       style="font-size:14.1111px;line-height:1.25;font-family:sans-serif;stroke-width:0.264583"
       x="73.21476"
       y="62.117958"
       id="text177"><tspan
         id="tspan175"
         x="73.21476"
         y="62.117958"
         style="stroke-width:0.264583"
         sodipodi:role="line" /></text>
    <text
       xml:space="preserve"
       id="text179"
       style="line-height:1.25;font-family:Arial;font-size:14.11111111px;white-space:pre;shape-inside:url(#rect181);-inkscape-font-specification:Arial;font-weight:normal;font-style:normal;font-stretch:normal;font-variant:normal;" />
    <path
       style="fill:none;stroke:#000000;stroke-width:0.264583px;stroke-linecap:butt;stroke-linejoin:miter;stroke-opacity:1"
       d="m 61.722175,43.141821 c 0.815592,6.932532 0.534538,3.018609 0.534538,11.759859 0,9.061837 0.34834,18.204715 0,27.261492 -0.125391,3.260225 -0.801807,6.355937 -0.801807,9.621703 0,3.563593 0,7.127187 0,10.690785 0,1.2654 -0.04354,2.92545 0,2.93996 3.446233,1.14874 15.504766,0.26727 20.045215,0.26727 9.62356,0 19.678059,0.53454 29.132379,0.53454"
       id="path187" />
    <path
       style="fill:none;stroke:#000000;stroke-width:0.264583px;stroke-linecap:butt;stroke-linejoin:miter;stroke-opacity:1"
       d="m 61.722175,43.141821 c 8.886759,0.839402 17.816481,0.534539 26.726952,0.534539 7.216277,0 14.432553,0 21.648833,0 0.85887,0 4.68922,0.02401 4.81085,0.267269 1.19216,2.384324 -1.33635,8.469092 -1.33635,10.958051 0,4.629958 -1.16927,9.487327 -1.33634,14.165284 -0.19555,5.475198 -0.70357,13.432155 0,18.708867 0.51486,3.861488 0.8018,7.518686 0.8018,11.49259 0,1.442169 -0.0331,6.180349 -0.8018,6.949009 -0.37798,0.37798 -1.06908,0 -1.60362,0"
       id="path189" />
    <path
       style="fill:none;stroke:#000000;stroke-width:0.264583px;stroke-linecap:butt;stroke-linejoin:miter;stroke-opacity:1"
       d="m 68.136644,54.63441 c 6.801289,0 -4.655526,-0.02769 13.898014,0.534539 5.085406,0.154103 12.544984,-0.878415 17.63979,0 4.930912,0.850157 4.524062,1.336347 7.750812,1.336347"
       id="path193" />
    <path
       style="fill:none;stroke:#000000;stroke-width:0.264583px;stroke-linecap:butt;stroke-linejoin:miter;stroke-opacity:1"
       d="M 69.205722,70.937851 103.95076,70.670583"
       id="path195" />
    <path
       style="fill:none;stroke:#000000;stroke-width:0.264583px;stroke-linecap:butt;stroke-linejoin:miter;stroke-opacity:1"
       d="m 73.214765,87.775831 35.546845,0.534538"
       id="path197" />
    <path
       style="fill:#f9f9f9;stroke:#000000;stroke-width:0.946839"
       d="m 100.92251,60.88585 c 1.32593,48.04848 1.47473,96.15689 0.74695,144.2201 -1.709073,19.84033 -3.461292,39.70128 -2.889058,59.65512 -0.0028,7.79909 -0.0056,15.59818 -0.0084,23.39727 17.447838,2.58721 35.294268,0.94362 52.898838,1.47969 45.96877,-0.44725 91.92686,0.53661 137.87596,1.72833 3.89544,-19.01569 1.40645,-38.67392 0.63668,-57.90196 -5.03499,-42.24485 -1.5294,-84.91933 3.34717,-127.00135 -0.19275,-16.565412 7.51308,-32.326755 5.75663,-48.947006 -64.00708,-0.674433 -128.04679,-0.245602 -192.0289,-2.109351 -6.44728,-0.546423 -8.449086,-2.554129 -6.33587,5.479157 z m 32.11575,35.824902 c 32.72069,1.384757 65.45317,1.018304 98.18801,0.509023 13.92389,-0.121819 27.40524,4.294535 40.91315,6.911255 1.11719,2.67857 -4.88661,0.0516 -6.22664,0.52086 -16.08927,-3.36919 -32.32211,-6.46974 -48.86613,-5.66574 -31.28258,0.212444 -62.77262,1.76585 -93.90868,-1.647998 2.19217,-1.179567 7.0584,-0.357724 9.90029,-0.6274 z m 83.03966,60.325048 c 14.32528,0.34087 29.28843,-0.46448 43.24519,1.05159 -43.89369,2.01764 -88.01521,0.0882 -131.89791,1.63163 -2.46751,-1.95616 10.58755,-1.54239 5.65054,-1.70267 27.63554,-1.38243 55.3411,-0.85087 83.00218,-0.98055 z m -39.47091,64.81747 c 32.92278,0.57725 65.92743,-0.14461 98.78779,2.04397 3.42854,-0.21261 1.86421,2.78086 -0.69843,1.57047 -44.12781,-1.21179 -88.35382,-0.5281 -132.41877,-2.98113 10.94489,-1.22653 23.03857,-0.42463 34.32941,-0.63331 z"
       id="path199"
       transform="matrix(0.26458333,0,0,0.26458333,35.529762,28.976536)" />
    <path
       style="fill:none;stroke:#000000;stroke-width:0.264583px;stroke-linecap:butt;stroke-linejoin:miter;stroke-opacity:1"
       d="m 75.62019,57.574374 c -0.298423,0.269992 -2.180349,-0.407961 -2.405425,0.267269 -1.17375,3.521253 1.872562,3.462774 2.405425,-0.267269 0.02998,-0.20987 1.016471,-10.318294 1.069078,-10.42351 0.119528,-0.239054 0.536176,-0.02951 0.801809,0 6.714175,0.746019 5.61266,3.445407 5.61266,8.552623 0,0.973926 -0.41578,5.538407 -1.870885,4.810853 -0.08599,-0.04299 0,-1.195459 0,-1.336347 0,-0.172038 -0.09831,-1.019927 0,-1.069078 0.594558,-0.297281 1.417166,-0.267272 2.138156,-0.267272"
       id="path201" />
    <path
       style="fill:none;stroke:#000000;stroke-width:0.264583px;stroke-linecap:butt;stroke-linejoin:miter;stroke-opacity:1"
       d="m 95.911459,57.513737 c -1.206408,-0.02946 -1.965595,-0.268221 -2.740329,0.661459 -1.278568,1.534281 1.981533,2.27354 2.55134,1.13393 0.124417,-0.248836 -0.0507,-0.76059 0,-1.039434 0.04646,-0.255551 0.188989,-0.496216 0.188989,-0.755955 0,-0.342966 -0.221671,-0.952042 -0.283483,-1.322916 -0.293949,-1.763692 -0.03087,-5.041888 0.472469,-6.803571 0.07768,-0.271872 0.11652,-1.192188 0.377976,-1.322917 0.450763,-0.225381 1.007938,0 1.511906,0 2.469903,0 5.169713,-0.135145 7.559523,0.661459 0.17489,0.0583 -0.1674,0.720942 -0.28348,1.41741 -0.15857,0.951419 -0.45945,2.984739 -0.75595,3.874256 -0.37232,1.116938 -0.14606,2.336685 -0.37798,3.496279 -0.14961,0.748046 -0.0647,1.522093 -0.18899,2.267858 -0.0454,0.272436 -0.22364,0.850447 -0.28348,0.850447 -0.17197,0 -0.48387,-0.31878 -0.66146,-0.377975 -0.4024,-0.134136 -1.37183,-0.0033 -1.6064,-0.472472 -0.16903,-0.338072 0,-0.755952 0,-1.133928 0,-0.04861 -0.0861,-0.953346 0,-1.039434 0.5036,-0.503597 2.16536,-0.196993 2.45685,0.09449"
       id="path205" />
    <path
       style="fill:none;stroke:#000000;stroke-width:0.264583px;stroke-linecap:butt;stroke-linejoin:miter;stroke-opacity:1"
       d="m 76.540178,48.962027 c 0.741849,0 -0.147405,-0.01528 1.700893,0.377976 0.618151,0.131522 1.311206,0.194065 1.937128,0.283482 0.205957,0.02942 0.411475,-0.02033 0.614212,0.04725 0.287324,0.09577 1.630285,0.614211 1.842632,0.614211"
       id="path229" />
    <path
       style="fill:none;stroke:#000000;stroke-width:0.264583px;stroke-linecap:butt;stroke-linejoin:miter;stroke-opacity:1"
       d="m 95.816963,49.954214 c 1.102431,0 2.204863,0 3.307291,0 1.115236,0 2.878706,-0.170761 3.968746,0.04725 0.28385,0.05677 0.64153,0.08106 0.94495,0.141741 0.3256,0.06512 0.62255,0.283483 0.99218,0.283483"
       id="path231" />
    <path
       style="fill:#000000;stroke:#000000;stroke-width:0.248"
       id="path859"
       d="m 68.832638,79.744042 c 3.519078,-0.08909 7.039782,-0.07284 10.559674,-0.06854 4.707351,-0.01691 9.414489,-0.02808 14.121495,0.03763 2.85926,0.0473 5.718445,0.09995 8.578033,0.122764 0.31678,0.0032 0.63356,0.0063 0.95035,0.0095 0,0 0.99004,-0.718643 0.99004,-0.718643 v 0 c -0.32152,2.64e-4 -0.64305,7.94e-4 -0.96457,0.0011 -2.89201,-0.01035 -5.783987,-0.02635 -8.675918,-0.05112 -4.707389,-0.03174 -9.414766,-0.02754 -14.122243,-0.03847 -3.456977,0.0042 -6.914886,0.0226 -10.370992,-0.06855 0,0 -1.065869,0.774401 -1.065869,0.774401 z" />
    <path
       style="fill:#000000;stroke:#000000;stroke-width:0.248"
       id="path861"
       d="m 72.157805,64.096025 c 3.951938,-0.07439 7.904988,-0.06063 11.857458,-0.06045 4.203338,0.0021 8.40667,-0.0074 12.609944,0.02008 2.349616,0.02815 4.699373,0.0036 7.049073,0.007 0,0 0.93884,-0.682104 0.93884,-0.682104 v 0 c -2.35611,0.0034 -4.712266,-0.02109 -7.06829,0.007 -4.221697,0.0271 -8.44345,0.0181 -12.66521,0.02008 -3.89699,1.74e-4 -7.794615,0.01511 -11.691041,-0.06045 0,0 -1.030774,0.748901 -1.030774,0.748901 z" />
    <path
       style="fill:#000000;stroke:#000000;stroke-width:0.248"
       id="path863"
       d="m 71.038835,97.234675 c 5.236228,-0.112538 10.474594,-0.07769 15.711762,-0.07762 4.524177,-0.01916 9.04817,0.02733 13.572223,0.0436 1.98416,0.0021 1.02528,-7.93e-4 2.87662,0.0083 0,0 0.95246,-0.692002 0.95246,-0.692002 v 0 c -1.87123,0.0092 -0.9047,0.0062 -2.89958,0.0083 -4.56406,0.01625 -9.128062,0.06246 -13.692244,0.0436 -5.165926,7.1e-5 -10.333174,0.03661 -15.4981,-0.07762 0,0 -1.023141,0.743357 -1.023141,0.743357 z" />
  </g>
</svg>
