<svg
   xmlns:dc="http://purl.org/dc/elements/1.1/"
   xmlns:cc="http://creativecommons.org/ns#"
   xmlns:rdf="http://www.w3.org/1999/02/22-rdf-syntax-ns#"
   xmlns:svg="http://www.w3.org/2000/svg"
   xmlns="http://www.w3.org/2000/svg"
   width="48"
   height="48"
   viewBox="0 0 24 24"
>
    <rect x="3" y="0" width="18" height="16" stroke="#bbb" fill="white" stroke-linejoin="round" />

    <!-- draw in some notes -->
    <line x1="3" y1="2" x2="6" y2="2" stroke="green" stroke-width="3" />
    <line x1="6" y1="6" x2="9" y2="6" stroke="green" stroke-width="3" />
    <line x1="9" y1="10" x2="18" y2="10" stroke="green" stroke-width="3" />

    <!-- set up a grid -->
    <line x1="3" y1="4" x2="21" y2="4" stroke="#bbb" />
    <line x1="3" y1="8" x2="21" y2="8" stroke="#bbb" />
    <line x1="3" y1="12" x2="21" y2="12" stroke="#bbb" />
    <line x1="6" y1="0" x2="6" y2="16" stroke="#bbb" />
    <line x1="9" y1="0" x2="9" y2="16" stroke="#bbb" />
    <line x1="12" y1="0" x2="12" y2="16" stroke="#bbb" />
    <line x1="15" y1="0" x2="15" y2="16" stroke="#bbb" />
    <line x1="18" y1="0" x2="18" y2="16" stroke="#bbb" />

    <!-- draw an arrow for download -->
    <path
        d="
            M 14 13
            v 5
            h 3
            l -5 5
            l -5 -5
            h 3
            v -5
            z
            "
        stroke="black"
        fill="blue"
        stroke-linejoin="round"
    />
</svg>
