<?xml version="1.0" encoding="UTF-8" standalone="no"?>
<svg
   xmlns:dc="http://purl.org/dc/elements/1.1/"
   xmlns:cc="http://creativecommons.org/ns#"
   xmlns:rdf="http://www.w3.org/1999/02/22-rdf-syntax-ns#"
   xmlns:svg="http://www.w3.org/2000/svg"
   xmlns="http://www.w3.org/2000/svg"
   xmlns:sodipodi="http://sodipodi.sourceforge.net/DTD/sodipodi-0.dtd"
   xmlns:inkscape="http://www.inkscape.org/namespaces/inkscape"
   width="146.27678mm"
   height="103.6966mm"
   viewBox="0 0 146.27678 103.6966"
   version="1.1"
   id="svg8"
   inkscape:version="1.0.2 (e86c870879, 2021-01-15, custom)"
   sodipodi:docname="trumpet.svg">
  <defs
     id="defs2" />
  <sodipodi:namedview
     id="base"
     pagecolor="#ffffff"
     bordercolor="#666666"
     borderopacity="1.0"
     inkscape:pageopacity="0.0"
     inkscape:pageshadow="2"
     inkscape:zoom="1.979899"
     inkscape:cx="288.39953"
     inkscape:cy="184.8539"
     inkscape:document-units="mm"
     inkscape:current-layer="layer1"
     inkscape:document-rotation="0"
     showgrid="false"
     inkscape:window-width="1920"
     inkscape:window-height="1017"
     inkscape:window-x="-8"
     inkscape:window-y="-8"
     inkscape:window-maximized="1" />
  <metadata
     id="metadata5">
    <rdf:RDF>
      <cc:Work
         rdf:about="">
        <dc:format>image/svg+xml</dc:format>
        <dc:type
           rdf:resource="http://purl.org/dc/dcmitype/StillImage" />
        <dc:title></dc:title>
      </cc:Work>
    </rdf:RDF>
  </metadata>
  <g
     inkscape:label="Layer 1"
     inkscape:groupmode="layer"
     id="layer1"
     transform="translate(-35.529762,-29.351017)">
    <rect
       style="fill:#808080;stroke-width:0.272309"
       id="rect10"
       width="146.27678"
       height="103.6966"
       x="35.529762"
       y="29.351017" />
    <path
       style="fill:none;stroke:#000000;stroke-width:0.264583px;stroke-linecap:butt;stroke-linejoin:miter;stroke-opacity:1"
       d="m 93.794517,54.607987 c 1.401964,-1.42184 2.500225,-3.302033 3.87541,-4.677217 0.975336,-0.975336 4.640273,-2.526745 5.879933,-2.939964 1.73062,-0.576876 5.67298,-0.741489 6.949,0.534539 1.46993,1.469928 2.48622,8.122253 2.00452,10.289877 -0.3685,1.658298 -1.27498,3.127862 -1.87088,4.677217 -1.95121,5.073134 -4.93685,10.950411 -8.8199,14.833457 -1.6992,1.699207 -3.632122,3.033771 -5.211751,4.810853 -0.378989,0.426362 -0.952619,0.646975 -1.336349,1.069078 -0.903915,0.994306 -2.275764,2.503783 -2.80633,3.741772 -0.26353,0.61491 -0.144851,1.125164 -0.267269,1.737254 -0.06381,0.319069 -1.175125,0.766953 -1.469982,0.935442 -2.11373,1.207847 -2.972925,3.369119 -4.810853,4.944486 -2.508948,2.15053 -5.309293,3.839313 -7.617179,6.147199 -0.330751,0.33075 -0.942658,0.54175 -1.202714,0.80181"
       id="path15" />
    <path
       style="fill:none;stroke:#000000;stroke-width:0.264583px;stroke-linecap:butt;stroke-linejoin:miter;stroke-opacity:1"
       d="m 93.794517,54.607987 c -3.231351,3.172599 -5.385231,7.303432 -8.15172,10.824415 -2.291273,2.916168 -4.618455,5.858605 -6.681737,8.953529 -0.929489,1.394235 -1.781818,2.810811 -2.806329,4.142679 -1.898132,2.46757 -3.906383,4.670528 -5.879931,7.082642 -1.704398,2.083154 -3.475651,4.143824 -5.34539,6.013563 -0.723477,0.723477 -1.976731,1.156534 -2.80633,1.737252 -0.392332,0.274635 -0.605585,0.736804 -1.069078,0.935445 -2.012855,0.86265 -3.806465,2.276112 -5.87993,3.073598 -1.417626,0.54524 -8.44693,1.497923 -8.819894,1.870887 -0.297105,0.297106 2.755992,3.371233 3.073599,3.741773 1.080375,1.26044 1.929276,2.78002 3.207235,3.87541 2.332714,1.99947 4.788178,3.94855 7.082642,6.01356 0.683537,0.61519 1.352352,1.21872 2.004521,1.87089 0.07043,0.0704 0.03403,0.26727 0.133635,0.26727 0.665817,0 -0.287327,-0.93815 -0.668174,-2.00452 -0.24858,-0.69603 -0.307227,-2.06653 -0.534539,-2.6727 -0.368234,-0.98196 -0.801808,-1.98233 -0.801808,-3.0736 0,-1.61551 -0.317021,-3.62665 0,-5.21175 0.375385,-1.87693 1.636756,-3.524216 2.672696,-5.078124 0.215304,-0.322959 0.308811,-0.901745 0.534537,-1.202712 0.318961,-0.425278 0.927878,-0.924097 1.202714,-1.336349 0.04942,-0.07413 0,-0.178178 0,-0.267269 0.04454,-0.133633 0.0555,-0.283699 0.133633,-0.400905 0.693984,-1.040971 2.072095,-1.704972 2.806333,-2.806329 1.00966,-1.514491 2.320829,-2.454466 3.608138,-3.741772 0.817962,-0.817965 1.463887,-1.864791 2.271789,-2.672696 0.463169,-0.463169 1.057738,-0.806318 1.469983,-1.336347 0.724093,-0.930976 0.385969,-0.712589 1.069078,-1.737252 0.416698,-0.625049 1.061172,-1.124037 1.469983,-1.737254 1.935316,-2.902974 4.032274,-5.91245 6.013564,-8.686257 0.723579,-1.013013 1.827844,-1.790306 2.53906,-2.80633 0.657326,-0.939035 1.198721,-1.998935 1.870887,-2.939965 0.783434,-1.096807 1.83152,-2.022131 2.672697,-3.073601 0.602472,-0.753092 1.028681,-1.47745 1.46998,-2.27179 0.77266,-1.390784 0.01701,0.1138 0.801809,-0.801809 0.367115,-0.428299 0.578075,-1.023273 0.935445,-1.469982 0.529124,-0.661406 1.093504,-1.120807 1.737252,-1.603619 0.473397,-0.355047 0.814578,-1.137854 1.202711,-1.603616 0.388524,-0.466227 0.887626,-0.561508 1.336349,-0.935443 1.17692,-0.980766 5.317473,-3.777012 6.815373,-4.276312 0.51165,-0.170549 1.23143,-0.133635 1.73725,-0.133635 0.10708,0 0.71649,-0.08532 0.80181,0 0.3118,0.311796 0.87495,0.818214 1.33635,1.202713 0.89384,0.744871 1.19608,0.775268 1.46998,1.870886 0.26512,1.060492 0,2.500585 0,3.608138 0,1.092065 0.18045,2.391791 0,3.474506 -0.66783,4.006988 -3.57429,7.288144 -6.1472,10.289876 -1.57398,1.836309 -2.43633,4.173582 -4.142678,5.879928 -1.843048,1.84305 -4.157385,3.355578 -6.013564,5.211757 -0.59372,0.593722 -1.031867,1.380794 -1.603616,2.00452 -0.740695,0.808033 -1.466133,1.431764 -2.138156,2.271792 -0.684617,0.855771 -1.985986,1.53348 -2.806332,2.271792 -1.02294,0.920647 -1.855179,1.988815 -2.806329,2.939963 -0.834107,0.834109 -1.273609,2.15996 -2.004521,3.073601 -0.972449,1.215562 -1.710888,2.499513 -2.53906,3.741772 -0.342932,0.5144 -1.062612,0.922514 -1.336347,1.469982 -0.04034,0.08068 0.06178,0.33913 0,0.400905 -0.120095,0.120094 -1.167104,1.122685 -1.202714,1.336347 -0.07323,0.43939 0,0.8909 0,1.33635"
       id="path19" />
    <path
       style="fill:none;stroke:#000000;stroke-width:0.264583px;stroke-linecap:butt;stroke-linejoin:miter;stroke-opacity:1"
       d="m 77.891982,97.504746 c 0.0761,0.846603 -0.04902,1.385369 -0.668173,2.00452 -0.928061,0.928064 -3.120843,0.534544 -4.276313,0.534544 -1.415708,0 -3.855585,0.54775 -5.078121,-0.267272 -0.201578,-0.134387 -0.720177,-0.658953 -0.801809,-0.801809 -0.452996,-0.792745 -0.532321,-6.955666 -0.267269,-7.750818 0.308232,-0.924695 0.797983,-1.59597 1.202711,-2.405425"
       id="path23" />
    <path
       style="fill:none;stroke:#000000;stroke-width:0.264583px;stroke-linecap:butt;stroke-linejoin:miter;stroke-opacity:1"
       d="m 77.090173,101.51379 c -0.08909,0.35636 -0.102997,0.74053 -0.267269,1.06908 -0.150736,0.30147 -3.475048,2.03806 -3.875408,2.13815 -0.761682,0.19042 -3.19913,0.53724 -4.009043,0.26727 -0.114173,-0.0381 -0.627809,-0.50931 -0.668173,-0.53454 -1.929141,-1.20571 -1.680962,-1.7583 -2.539061,-3.4745 -0.498237,-0.996472 -1.02784,-1.623458 -1.202714,-2.672695 -0.223202,-1.339217 -0.192857,-3.393268 0.267269,-4.543584 0.317542,-0.79385 1.202714,-2.304356 1.202714,-2.939962"
       id="path27" />
    <path
       style="fill:none;stroke:#000000;stroke-width:0.264583px;stroke-linecap:butt;stroke-linejoin:miter;stroke-opacity:1"
       d="m 83.77191,66.635116 c 0.998821,1.366319 2.706881,1.96334 4.009043,2.939965 0.490686,0.368012 0.959702,1.121709 1.603619,1.336347 1.11402,0.37134 2.101003,0.732949 3.207234,1.336347 1.257996,0.686181 2.98619,0.98167 4.009043,2.004523 0.754224,0.754226 5.746291,3.595214 5.746291,3.875407 0,1.145567 -1.3757,2.216859 -1.87088,3.207234 -0.0246,0.04921 -1.325037,0.03624 -1.469986,0 -0.234746,-0.05869 -0.591428,-0.40831 -0.801809,-0.53454 -0.706385,-0.423831 -1.640099,-0.728943 -2.271789,-1.202711 -0.794454,-0.595839 -1.545138,-1.520087 -2.271792,-2.004523 -1.019583,-0.67972 -2.212068,-1.31395 -3.34087,-1.737252 -0.876083,-0.32853 -2.003817,-1.634074 -2.939965,-2.138156 -2.090349,-1.125572 -3.015949,-1.255635 -4.409946,-3.207234 -0.509267,-0.712972 -0.806029,-0.814464 -1.069078,-1.603616 -0.170145,-0.510436 0.181243,-1.383958 0.400905,-1.603618 0.4025,-0.4025 0.812448,0.208537 1.46998,-0.668173 z"
       id="path29" />
    <path
       style="fill:none;stroke:#000000;stroke-width:0.264583px;stroke-linecap:butt;stroke-linejoin:miter;stroke-opacity:1"
       d="m 81.901025,68.906907 c -1.483143,-0.45779 -2.529419,0.619956 -2.806332,2.004521 -0.0527,0.263514 0.09477,0.439766 -0.133633,0.668173 -0.05525,0.05525 -0.993703,1.450102 -0.801809,1.603619 0.833255,0.666604 1.949706,1.032533 2.806329,1.603615 0.66897,0.445982 1.797635,1.664002 2.405428,2.271792 1.482913,1.482916 4.221157,2.68047 6.013564,3.875408 0.358195,0.238797 0.650353,0.63432 1.069078,0.801809 1.228667,0.491466 2.655136,0.73782 3.875407,1.469983 0.580181,0.348107 2.761393,2.079024 3.073599,1.870887 1.133438,-0.755626 1.870887,-3.238328 1.870887,-4.409948"
       id="path33" />
    <path
       style="fill:none;stroke:#000000;stroke-width:0.264583px;stroke-linecap:butt;stroke-linejoin:miter;stroke-opacity:1"
       d="m 78.025615,73.18322 c -0.408863,0.06815 -3.221746,4.395433 -3.207234,4.409945 0.542465,0.542465 3.048804,0.96897 3.87541,1.33635 0.896639,0.398504 1.643364,1.280014 2.405425,1.737251 0.09604,0.05762 0.801428,0.160057 0.935442,0.267269 2.541323,2.033058 5.52128,3.324492 8.151723,5.078121 1.066739,0.711161 2.667378,0.796491 3.608136,1.737252 0.120663,0.120663 1.387819,0.776073 1.603618,0.668173 0.917493,-0.458745 2.004521,-2.70071 2.004521,-3.608139"
       id="path35" />
    <path
       style="fill:none;stroke:#000000;stroke-width:0.264583px;stroke-linecap:butt;stroke-linejoin:miter;stroke-opacity:1"
       d="m 98.204465,49.529866 c 0.04454,-0.356359 0.03044,-0.725091 0.133636,-1.069078 0.386265,-1.287554 3.227509,-3.425044 4.142679,-4.543582 0.73503,-0.898374 1.45953,-1.856261 2.13815,-2.80633 0.3442,-0.481881 0.80603,-1.219567 0.93545,-1.737252 0.0445,-0.17818 -0.05,-0.534539 0.13363,-0.534539 0.44629,0 1.31925,1.452886 1.60362,1.737252 0.20711,0.207111 0.53773,-0.0096 0.4009,0.400904 -0.29682,0.890479 -1.8473,1.289171 -2.27179,2.138156 -0.40205,0.804103 -1.47567,2.010209 -2.00452,2.539061 -0.5127,0.512698 -0.51171,1.31352 -0.93544,1.737252"
       id="path41" />
    <path
       style="fill:none;stroke:#000000;stroke-width:0.264583px;stroke-linecap:butt;stroke-linejoin:miter;stroke-opacity:1"
       d="m 105.42074,38.839085 c -0.0159,-1.050541 0.32693,-4.335969 1.06908,-5.078121 0.0641,-0.06409 0.61576,0.856824 0.66817,0.935444 0.31845,0.477666 0.6779,0.814771 1.06908,1.336347 0.46303,0.617362 0.60384,1.672919 1.06908,2.138156 0.33854,0.338539 1.09059,0.844833 1.33635,1.336348 0.0996,0.199211 0.054,0.452099 0,0.668174 -0.1365,0.546014 -2.70483,1.069078 -3.20724,1.069078"
       id="path43" />
    <path
       style="fill:none;stroke:#000000;stroke-width:0.264583px;stroke-linecap:butt;stroke-linejoin:miter;stroke-opacity:1"
       d="m 93.126344,72.515046 c -0.201301,-3.373088 3.186922,-5.009165 4.677216,-7.617182 2.28348,-3.996095 3.54287,-7.357057 8.41899,-8.819896 0.53657,-0.16097 1.26267,-0.470007 1.87089,-0.267269 1.06163,0.353878 0.91294,1.5361 1.20271,2.405425 1.47829,4.434872 0.74761,6.462049 -2.53906,10.02261 -1.44818,1.568857 -2.96442,2.563519 -4.40995,4.009041 -1.16221,1.162214 -1.88807,2.556248 -3.073597,3.741774"
       id="path45" />
    <path
       style="fill:none;stroke:#000000;stroke-width:0.264583px;stroke-linecap:butt;stroke-linejoin:miter;stroke-opacity:1"
       d="m 93.126344,72.515046 c 0.712718,-0.133636 1.483457,-0.08914 2.138156,-0.400904 0.589367,-0.280652 1.073353,-1.742951 1.469982,-2.271792 0.41651,-0.555345 1.052761,-0.919126 1.469983,-1.336347 0.304482,-0.304483 0.621974,-0.970635 0.935445,-1.336347 1.32394,-1.544603 2.06748,-2.165771 3.20723,-3.87541 0.54456,-0.81683 1.71514,-1.169538 2.27179,-2.004521 0.14661,-0.219916 1.14784,-1.658498 1.46999,-1.336347 0.45684,0.456849 0.56025,0.959475 0.80181,1.603616 1.15663,3.084354 -1.32878,6.653157 -3.60814,8.552625 -0.62888,0.52406 -0.40855,0.0076 -0.93545,0.53454 -0.20108,0.201078 -0.51902,0.709216 -0.80181,0.935442 -0.90003,0.720024 -1.888938,1.354405 -2.672692,2.138156 -0.16275,0.162754 -1.606632,1.468475 -1.603615,1.469983 0.64367,0.321837 1.336347,0.53454 2.00452,0.801809"
       id="path47" />
    <path
       style="fill:none;stroke:#000000;stroke-width:0.264583px;stroke-linecap:butt;stroke-linejoin:miter;stroke-opacity:1"
       d="m 83.504641,82.804922 c -1.398722,1.833835 -3.40338,2.997668 -5.078121,4.543581 -2.241683,2.069246 -3.850802,4.870667 -4.81085,7.750818 -0.06682,0.200451 0.06682,0.46772 0,0.668173 -0.218321,0.654963 -0.622165,1.916893 0,2.539061 0.383958,0.383958 1.292362,0.519877 1.737251,0.668174 4.188172,1.396061 6.423356,-0.719633 9.621703,-3.207235 3.461879,-2.692574 7.317195,-4.679979 8.418991,-9.087164"
       id="path49" />
    <path
       style="fill:none;stroke:#000000;stroke-width:0.264583px;stroke-linecap:butt;stroke-linejoin:miter;stroke-opacity:1"
       d="m 83.504641,82.804922 c 1.893888,2.626675 0.487365,2.290146 -0.801809,4.009043 -0.685948,0.914599 -1.202415,1.870589 -2.00452,2.672694 -1.072222,1.072224 -2.654721,1.401474 -3.608139,2.672697 -0.523925,0.698566 -1.303954,3.050651 -0.267269,3.741772 0.79484,0.529894 2.816876,0.452249 3.741772,0.267271 0.751747,-0.150349 2.238272,-1.703731 2.806332,-2.271792 0.554389,-0.554389 1.545736,-0.743929 2.138156,-1.336347 0.713872,-0.713875 4.677217,-5.947404 4.677217,-6.548104"
       id="path51" />
    <path
       style="fill:none;stroke:#000000;stroke-width:0.264583px;stroke-linecap:butt;stroke-linejoin:miter;stroke-opacity:1"
       d="m 73.749303,73.584124 c 0.728057,0.548143 1.40853,1.870885 2.405428,1.870885"
       id="path53" />
    <path
       style="fill:none;stroke:#000000;stroke-width:0.264583px;stroke-linecap:butt;stroke-linejoin:miter;stroke-opacity:1"
       d="m 76.822904,69.307812 c 0.700654,0.554736 2.041149,0.571164 2.672694,1.202711"
       id="path55" />
    <path
       style="fill:none;stroke:#000000;stroke-width:0.264583px;stroke-linecap:butt;stroke-linejoin:miter;stroke-opacity:1"
       d="m 79.629234,65.833306 c 0.684072,0.717524 1.902761,1.100953 2.53906,1.737252 0.321218,0.32122 -0.168725,0.892895 -0.267269,1.336349"
       id="path57" />
    <path
       style="fill:none;stroke:#000000;stroke-width:0.264583px;stroke-linecap:butt;stroke-linejoin:miter;stroke-opacity:1"
       d="m 79.629234,65.833306 c 0.931338,-2.568119 0.02432,-0.02127 0,0 -0.519634,0.454679 -0.92214,0.253966 -1.336347,0.668174 -0.157491,0.15749 -0.579086,0.668176 -0.400905,0.53454 0.563454,-0.42259 1.158169,-0.801809 1.737252,-1.202714"
       id="path59" />
    <path
       style="fill:none;stroke:#000000;stroke-width:0.264583px;stroke-linecap:butt;stroke-linejoin:miter;stroke-opacity:1"
       d="m 76.822904,69.307812 c 0.222724,-0.400905 0.463074,-0.792514 0.668173,-1.202714 0.127559,-0.255114 -0.577977,0.263949 -0.668173,0.534538 -0.07043,0.211296 0.157491,0.510685 0,0.668176 -0.191595,0.191595 -0.541279,0.0592 -0.801809,0.133633 -0.283544,0.08101 -0.487045,0.577609 -0.668174,0.668174 -0.178181,0.08909 -0.431059,0.647932 -0.267269,0.53454 0.600687,-0.415859 1.158166,-0.8909 1.737252,-1.336347"
       id="path61" />
    <path
       style="fill:none;stroke:#000000;stroke-width:0.264583px;stroke-linecap:butt;stroke-linejoin:miter;stroke-opacity:1"
       d="m 73.749303,73.584124 c 0.311814,-0.53454 0.658691,-1.050112 0.935445,-1.603618 0.08232,-0.164642 -0.273873,0.14024 -0.668174,0.53454 -0.42759,0.427588 -0.760312,0.770684 -1.336349,1.202711 -0.475837,0.356878 -1.670947,0.967068 -1.202711,0.80181 0.77226,-0.272564 1.514525,-0.623629 2.271789,-0.935443"
       id="path63" />
    <path
       style="fill:#ffff00;stroke-width:0.505076"
       d="m 113.48826,234.74892 c -5.04657,3.78489 -10.86089,6.52951 -15.686858,10.63583 -9.795213,4.96093 -18.806803,12.08574 -29.909097,13.89095 -8.484582,2.03606 -17.373435,2.92294 -25.661229,5.42661 2.334125,4.92165 7.132512,8.38802 10.408093,12.747 5.448725,6.85459 10.833007,13.83186 17.817884,19.23474 9.030141,7.51412 17.798858,15.42763 26.826353,22.88612 -1.899158,-6.48569 -2.886915,-13.32473 -5.174077,-19.75223 -1.538286,-8.14388 -1.517596,-16.56854 -0.939124,-24.80596 1.669808,-9.11835 8.381837,-15.97129 12.204695,-24.11443 1.98842,-2.55379 4.46039,-4.8473 5.27765,-8.04176 1.87999,-2.38647 4.53089,-4.99988 4.83571,-8.10687 z"
       id="path65"
       transform="matrix(0.26458333,0,0,0.26458333,35.529762,29.351017)" />
    <path
       style="fill:#ffff00;stroke-width:0.505076"
       d="m 114.96699,238.6751 c -5.64391,4.81196 -5.075,13.09717 -4.75284,19.82227 1.01861,6.7538 4.98854,12.63734 7.97369,18.6602 2.40966,3.57609 5.93927,7.02496 10.16762,8.15027 7.83153,0.76841 15.44475,-1.84084 22.06444,-5.86316 3.10705,-1.3051 6.20098,-3.75123 5.62505,-7.53035 -0.33997,-1.20036 0.98444,-3.96018 -0.41143,-4.52683 -9.28771,1.07196 -18.74118,0.82563 -28.09585,0.8977 -5.53459,0.52498 -10.38997,-4.59113 -9.94676,-10.05786 -0.53373,-7.13002 -1.22534,-14.33103 -0.34022,-21.46107 -0.76124,0.63627 -1.52247,1.27255 -2.2837,1.90883 z"
       id="path67"
       transform="matrix(0.26458333,0,0,0.26458333,35.529762,29.351017)" />
    <path
       style="fill:#ffff00;stroke-width:0.505076"
       d="m 155.48752,186.06134 c -3.61757,1.91703 -5.55524,6.12323 -8.41391,8.99154 -7.97975,10.03576 -16.89602,19.40155 -24.17041,29.95458 0.0238,0.95678 -1.16334,3.1591 0.58695,1.52213 8.52579,-6.5201 14.59439,-15.48391 22.37528,-22.76592 3.68647,-4.3873 6.33433,-9.55723 10.35406,-13.70512 0.61272,-1.02184 3.35573,-3.62499 0.66785,-3.76341 -0.46161,-0.0883 -0.9227,-0.26215 -1.39982,-0.2338 z"
       id="path69"
       transform="matrix(0.26458333,0,0,0.26458333,35.529762,29.351017)" />
    <path
       style="fill:#ffff00;stroke-width:0.505076"
       d="m 181.5177,203.60978 c -9.8613,9.67351 -22.3318,17.06031 -29.42141,29.30274 -3.02571,5.37681 -6.26879,11.03174 -7.39195,17.11101 -0.25011,3.38686 -3.0813,8.3828 0.89572,10.6648 4.00274,1.28621 8.36709,3.4617 12.60225,2.56682 1.37302,-1.42161 0.60033,-4.82193 2.43561,-5.61503 0.4745,0.65457 0.26745,2.78475 1.49649,1.36233 1.46529,-1.59572 3.69677,-3.10267 4.4717,-5.05767 -3.983,-1.07781 -9.55748,0.65283 -12.35168,-3.22184 -1.4477,-6.11402 0.0318,-13.47935 5.66534,-17.05323 5.55421,-3.64116 11.54699,-7.06623 14.98287,-13.01789 2.40056,-4.06545 6.39751,-6.95079 8.77445,-10.9535 0.55253,-2.20444 -1.20275,-4.28635 -2.15939,-6.08854 z"
       id="path71"
       transform="matrix(0.26458333,0,0,0.26458333,35.529762,29.351017)" />
    <path
       style="fill:#ffff00;stroke-width:0.505076"
       d="m 203.45991,213.16776 c -8.58435,5.51901 -15.68557,13.16122 -21.87612,21.20235 -3.23072,5.95761 -7.93136,11.21384 -10.96864,17.15385 5.39103,-3.04698 9.05868,-8.62849 14.77545,-11.33363 6.7612,-4.59765 10.6546,-12.15491 15.6266,-18.45266 1.30709,-2.41635 3.98657,-4.64166 4.2233,-7.39699 -0.48337,-0.48777 -1.11233,-1.02594 -1.78059,-1.17292 z"
       id="path73"
       transform="matrix(0.26458333,0,0,0.26458333,35.529762,29.351017)" />
    <path
       style="fill:#ffff00;stroke-width:0.505076"
       d="m 207.05068,215.68525 c -5.63208,8.28452 -11.18551,16.82207 -18.15907,24.073 -4.744,3.05742 -9.32317,6.36206 -13.3934,10.31066 -1.87482,1.96723 -4.57466,2.80192 -6.80176,3.99129 -2.18065,3.41257 -5.95523,5.90463 -6.93394,10.03839 8.11809,-0.93614 13.76659,-7.65102 20.20225,-11.98724 7.5856,-5.40294 13.75413,-12.37393 19.63662,-19.51492 3.2797,-3.75035 7.72544,-6.09571 12.04686,-8.41761 -0.49597,-2.23257 1.71388,-6.03584 -1.63361,-6.66661 -1.60473,-0.70193 -3.22889,-1.54435 -4.96395,-1.82696 z"
       id="path75"
       transform="matrix(0.26458333,0,0,0.26458333,35.529762,29.351017)" />
    <path
       style="fill:#ffff00;stroke-width:0.505076"
       d="m 210.96206,204.95238 c -2.1989,2.30105 -4.4203,4.58872 -6.41111,7.076 3.10982,1.88096 6.63357,3.78516 10.06503,4.47367 2.51579,-4.04469 5.58884,-7.6965 8.57051,-11.39874 -2.60147,-1.76688 -5.53388,-2.93277 -8.45707,-4.04456 -1.25578,1.29788 -2.51157,2.59575 -3.76736,3.89363 z"
       id="path77"
       transform="matrix(0.26458333,0,0,0.26458333,35.529762,29.351017)" />
    <path
       style="fill:#ffff00;stroke-width:0.505076"
       d="m 170.84105,172.23587 c -3.62683,4.17953 -6.46401,8.99395 -9.67734,13.49402 5.60149,2.17023 9.64093,6.98353 15.27936,9.10079 8.69127,5.44649 17.26281,11.31687 26.49894,15.73673 3.59327,-2.9166 6.4799,-6.60274 9.68621,-9.92495 -7.45372,-2.2764 -13.19194,-7.86945 -20.10367,-11.28498 -8.12544,-4.09024 -14.4159,-10.68184 -21.05018,-16.72012 -0.20144,-0.10003 -0.39201,-0.4005 -0.63332,-0.40149 z"
       id="path79"
       transform="matrix(0.26458333,0,0,0.26458333,35.529762,29.351017)" />
    <path
       style="fill:#ffff00;stroke-width:0.505076"
       d="m 180.06067,158.68069 c -2.82643,3.84407 -5.50401,7.80458 -8.25583,11.70553 7.21211,7.16704 14.65312,14.2745 23.79131,18.95679 6.23898,3.10501 11.32492,8.36721 18.26616,9.97856 2.9973,-4.27656 6.78949,-7.88913 10.64507,-11.37704 -5.20001,-6.2775 -13.05777,-8.98353 -19.88935,-12.92088 -5.77658,-4.4108 -11.94746,-8.22383 -18.3031,-11.73513 -2.2975,-1.2485 -4.02043,-3.32936 -6.25426,-4.60783 z"
       id="path81"
       transform="matrix(0.26458333,0,0,0.26458333,35.529762,29.351017)" />
    <path
       style="fill:#ffff00;stroke-width:0.505076"
       d="m 221.32599,193.25572 c -1.62721,2.12219 -4.67593,3.79948 -5.23523,6.46143 2.50995,1.40178 5.43315,2.31752 7.91155,3.80188 4.15365,-2.3534 7.36696,-6.06069 10.84631,-9.27979 -3.08853,-1.64983 -6.51931,-2.91032 -9.01443,-5.46015 -1.50273,1.49221 -3.00546,2.98442 -4.5082,4.47663 z"
       id="path83"
       transform="matrix(0.26458333,0,0,0.26458333,35.529762,29.351017)" />
    <path
       style="fill:#ffff00;stroke-width:0.505076"
       d="m 239.85992,177.50661 c -4.38369,3.29058 -8.43814,7.09824 -12.80545,10.45173 2.68505,2.05992 5.91668,3.99416 9.08446,4.84261 4.09113,-3.29554 8.31154,-6.69686 11.83477,-10.51781 -2.40713,-1.90919 -5.11148,-3.99589 -8.11378,-4.77653 z"
       id="path85"
       transform="matrix(0.26458333,0,0,0.26458333,35.529762,29.351017)" />
    <path
       style="fill:#ffff00;stroke-width:0.505076"
       d="m 190.02113,148.38976 c -3.24291,2.47219 -5.829,5.70278 -8.72046,8.5636 6.01517,6.66114 15.09059,9.11593 21.71335,15.05364 6.85627,4.94573 15.47385,7.12071 21.48054,13.33816 2.18276,2.75287 4.26509,-1.38876 6.16844,-2.37248 2.29296,-2.2616 5.65479,-4.00202 7.39858,-6.56007 -1.37948,-1.59635 -5.36429,-1.47379 -4.92746,-4.15011 -4.00894,-2.74946 -7.94247,-5.78549 -12.68807,-7.27625 -6.24386,-3.07995 -12.93741,-5.22526 -19.09425,-8.42156 -3.67473,-2.82195 -7.11696,-6.18508 -11.33067,-8.17493 z"
       id="path87"
       transform="matrix(0.26458333,0,0,0.26458333,35.529762,29.351017)" />
    <path
       style="fill:#ffff00;stroke-width:0.505076"
       d="m 250.00781,183.59811 c -4.27069,3.12954 -8.64583,6.5735 -12.09519,10.50302 0.60684,0.97661 2.24255,1.74707 2.22253,0.072 1.67989,-1.06754 0.79319,2.25883 2.4879,1.77764 3.72829,-0.0203 5.03495,-4.65421 7.19893,-7.01307 0.90247,-1.44374 2.9517,-4.57184 0.18583,-5.3396 z"
       id="path89"
       transform="matrix(0.26458333,0,0,0.26458333,35.529762,29.351017)" />
    <path
       style="fill:#ffff00;stroke-width:0.505076"
       d="m 236.7397,195.55125 c -4.19504,2.37209 -7.15393,6.61485 -11.19356,9.33405 2.6914,1.46407 5.12647,4.16602 8.18283,4.64532 3.37935,-3.06098 5.1711,-7.83143 5.9672,-12.23922 -1.00861,-0.3796 -1.88672,-1.4315 -2.95647,-1.74015 z"
       id="path91"
       transform="matrix(0.26458333,0,0,0.26458333,35.529762,29.351017)" />
    <path
       style="fill:#ffff00;stroke-width:0.505076"
       d="m 224.64253,206.28116 c -3.03007,3.26041 -6.40073,6.73298 -8.08418,10.87296 0.73795,1.4872 2.0097,-2.20466 2.5678,-0.0178 0.23392,2.91735 3.79304,4.52964 6.32726,5.02709 4.06283,-1.24487 5.22918,-6.25071 6.95467,-9.66847 0.85474,-2.23286 -3.0767,-2.27913 -4.03272,-3.75157 -1.2456,-0.81177 -2.47166,-1.70331 -3.73283,-2.46225 z"
       id="path93"
       transform="matrix(0.26458333,0,0,0.26458333,35.529762,29.351017)" />
    <path
       style="fill:#ffff00;stroke-width:0.505076"
       d="m 176.82108,154.09751 c -3.48055,4.47768 -7.24121,8.98285 -9.91212,13.94484 1.15733,1.20857 3.61864,2.57911 4.39788,0.12655 2.81187,-3.63477 5.31229,-7.49576 7.94985,-11.25598 -0.77861,-0.86249 -1.34435,-2.37793 -2.43561,-2.81541 z"
       id="path95"
       transform="matrix(0.26458333,0,0,0.26458333,35.529762,29.351017)" />
    <path
       style="fill:#ffff00;stroke-width:0.505076"
       d="m 172.51017,150.01942 c -3.07497,0.0992 -6.05147,2.68564 -6.24834,5.6535 -1.33457,2.63477 -1.75484,5.66913 -3.67068,8.08122 -1.7027,2.10738 3.18201,4.89943 3.73776,1.93053 2.733,-4.67481 6.96832,-8.537 9.08151,-13.50881 -0.0413,-1.55074 -1.42417,-2.46022 -2.90025,-2.15644 z"
       id="path97"
       transform="matrix(0.26458333,0,0,0.26458333,35.529762,29.351017)" />
    <path
       style="fill:#ffff00;stroke-width:0.505076"
       d="m 159.62777,167.73556 c -3.44385,4.66649 -7.15935,9.49336 -9.93185,14.42821 1.60903,0.61848 4.30349,2.86793 5.22142,0.14304 3.13753,-4.48961 6.56972,-8.94399 9.18312,-13.69921 -1.33245,-0.78143 -3.58071,-3.22913 -4.47269,-0.87204 z"
       id="path99"
       transform="matrix(0.26458333,0,0,0.26458333,35.529762,29.351017)" />
    <path
       style="fill:#ffff00;stroke-width:0.505076"
       d="m 165.52,169.71936 c -3.35831,4.6427 -6.56567,9.52112 -9.11702,14.63538 1.42946,1.0794 3.61761,1.25536 4.24606,-0.84299 2.98027,-4.01281 5.71976,-8.19657 8.56334,-12.30577 -1.2129,-0.49398 -2.373,-1.33418 -3.69238,-1.48662 z"
       id="path101"
       transform="matrix(0.26458333,0,0,0.26458333,35.529762,29.351017)" />
    <path
       style="fill:#ffff00;stroke-width:0.505076"
       d="m 119.9783,227.47661 c -2.65345,1.95329 -4.98748,4.63871 -4.89194,8.11871 -1.3562,2.42404 0.94697,0.40612 1.35344,-0.56624 1.25323,-2.33637 3.20694,-5.09787 3.5385,-7.55247 z"
       id="path103"
       transform="matrix(0.26458333,0,0,0.26458333,35.529762,29.351017)" />
    <path
       style="fill:#ffff00;stroke-width:0.505076"
       d="m 184.12397,144.64312 c -2.08087,2.46014 -4.56823,5.08757 -5.81035,8.09108 1.16008,3.69396 3.51838,1.79432 5.20706,-0.58195 1.0363,-2.02565 6.81273,-4.43457 3.15935,-6.08103 -0.81075,-0.48619 -1.55728,-1.40498 -2.55606,-1.4281 z"
       id="path105"
       transform="matrix(0.26458333,0,0,0.26458333,35.529762,29.351017)" />
    <path
       style="fill:#ffff00;stroke-width:0.505076"
       d="m 182.43907,142.54192 c -1.85675,0.91449 -5.52477,0.2896 -5.1504,3.36389 -0.004,1.37888 -1.95131,4.18065 -0.16869,4.89292 1.81181,-2.67123 4.86298,-5.09308 5.60319,-8.21636 -0.0824,-0.0577 -0.18939,-0.0534 -0.2841,-0.0404 z"
       id="path107"
       transform="matrix(0.26458333,0,0,0.26458333,35.529762,29.351017)" />
    <path
       style="fill:#ffff00;stroke-width:0.505076"
       d="m 268.304,65.841353 c -11.57771,-0.07269 -21.87096,6.050993 -31.59291,11.621686 -7.00187,6.571861 -12.05844,14.978243 -18.88935,21.760655 -11.51094,12.842066 -20.03849,27.970766 -30.69335,41.488216 -1.58328,1.51251 -2.18187,3.20834 0.35552,3.98546 2.02128,2.35798 3.26491,-1.62231 4.25468,-2.87163 5.55651,-9.9272 14.80273,-17.12747 20.18628,-27.17449 2.25109,-2.4969 4.43201,-5.00797 6.2079,-7.89675 3.76796,-4.27121 8.20413,-7.926006 11.5546,-12.559823 7.24344,-5.817782 15.13198,-10.869233 23.06623,-15.701696 4.58735,-2.901322 9.75206,-4.907548 15.26193,-4.614358 3.4229,-0.761887 5.25052,3.255693 7.88397,4.826428 2.66511,2.395033 6.19484,4.848075 5.53401,8.954474 0.62732,12.533115 -0.30087,25.175335 1.17441,37.643705 0.99389,0.36348 1.31454,-3.14027 2.09073,-3.88664 3.16075,-6.8172 6.47864,-13.95643 5.70883,-21.684689 -0.58482,-9.978216 -1.80792,-20.45119 -6.83084,-29.273836 -3.38906,-4.539043 -10.18166,-4.437296 -15.27264,-4.616712 z"
       id="path109"
       transform="matrix(0.26458333,0,0,0.26458333,35.529762,29.351017)" />
    <path
       style="fill:#ffff00;stroke-width:0.505076"
       d="m 272.6307,100.53773 c -12.62543,1.88179 -23.60429,10.47438 -29.47162,21.68839 -4.65569,8.10967 -8.87695,16.63904 -15.8215,23.10852 -4.47968,4.69524 -8.62629,10.2223 -9.14661,16.92992 3.85816,-0.15879 8.48877,-0.84878 9.96561,-5.05693 2.45152,-5.99642 8.37395,-9.29255 11.73945,-14.6653 4.92877,-5.41525 9.16341,-11.43433 14.17903,-16.75572 3.41963,-2.72982 6.72881,-5.55485 9.28768,-9.13281 1.18944,-1.68437 3.90952,-2.68446 4.92746,-0.26635 2.87955,5.29984 3.94739,11.82787 2.40601,17.70628 4.26845,-5.52643 6.93894,-12.14427 9.01739,-18.76279 -1.65354,-4.69063 -1.64855,-10.31815 -4.9018,-14.25361 -0.62291,-0.45976 -1.42455,-0.58129 -2.1811,-0.5396 z"
       id="path111"
       transform="matrix(0.26458333,0,0,0.26458333,35.529762,29.351017)" />
    <path
       style="fill:#ffff00;stroke-width:0.505076"
       d="m 280.37059,119.70892 c -2.15986,3.89813 -3.7617,8.31452 -6.33401,12.08836 -5.42585,9.21902 -12.00512,17.67995 -19.33708,25.44709 -0.81123,0.37591 -1.86086,3.31474 -0.18743,1.88516 9.55531,-8.49824 20.42368,-16.87995 25.13642,-29.19775 0.60238,-3.26316 1.82781,-7.07677 0.7803,-10.23272 z"
       id="path113"
       transform="matrix(0.26458333,0,0,0.26458333,35.529762,29.351017)" />
    <path
       style="fill:#ffff00;stroke-width:0.505076"
       d="m 276.54306,139.58939 c -7.06638,9.62881 -16.96705,16.66583 -25.24425,25.1768 -3.06553,3.79202 -6.38399,7.56451 -8.69056,11.83977 2.3283,1.38308 4.65641,3.45768 7.21509,4.12446 6.84633,-6.62283 12.27472,-14.67109 17.33808,-22.71409 3.24304,-6.00189 7.13388,-12.1658 9.38164,-18.42694 z"
       id="path115"
       transform="matrix(0.26458333,0,0,0.26458333,35.529762,29.351017)" />
    <path
       style="fill:#ffff00;stroke-width:0.505076"
       d="m 264.27819,40.49777 c -5.97688,11.802079 -16.67905,20.031316 -25.00127,30.016525 -0.6621,0.787717 -2.09749,3.030146 -1.0141,3.654898 4.90647,-2.620955 10.54009,-4.255473 14.85536,-7.800075 2.58844,-5.889899 7.63702,-10.198799 11.14324,-15.52123 2.10933,-2.727372 6.13239,-4.415724 7.48243,-7.39562 -2.56686,-1.27646 -3.525,-4.548048 -5.94944,-6.140819 -0.50541,1.062107 -1.01081,2.124214 -1.51622,3.186321 z"
       id="path117"
       transform="matrix(0.26458333,0,0,0.26458333,35.529762,29.351017)" />
    <path
       style="fill:#b3b3b3;stroke-width:0.505076"
       d="m 268.26356,18.349386 c -2.47035,5.00246 -3.30516,10.968542 -2.81541,16.513626 3.29786,2.395404 5.6667,6.306444 8.84377,9.041063 2.95762,-0.943298 6.7889,-1.206014 8.91578,-3.635168 -0.42305,-3.747463 -4.98577,-5.446023 -6.41111,-8.841794 -1.93817,-4.86566 -5.21277,-9.269902 -8.53303,-13.077727 z"
       id="path119"
       transform="matrix(0.26458333,0,0,0.26458333,35.529762,29.351017)" />
  </g>
</svg>
